
<svg xmlns="http://www.w3.org/2000/svg" xmlns:xlink="http://www.w3.org/1999/xlink" width="281.966" height="43.957" viewBox="0 0 281.966 43.957">
    <defs>
      <linearGradient id="linear-gradient" x1="-0.853" y1="7.886" x2="-0.853" y2="7.904" gradientUnits="objectBoundingBox">
        <stop offset="0" stop-color="#21c2fd"/>
        <stop offset="1" stop-color="#1fd2fb"/>
      </linearGradient>
      <linearGradient id="linear-gradient-2" x1="-0.858" y1="7.141" x2="-0.858" y2="7.122" gradientUnits="objectBoundingBox">
        <stop offset="0" stop-color="#feb22a"/>
        <stop offset="1" stop-color="#fee07f"/>
      </linearGradient>
      <linearGradient id="linear-gradient-3" x1="-1.932" y1="7.174" x2="-1.932" y2="7.156" gradientUnits="objectBoundingBox">
        <stop offset="0" stop-color="#fe9125"/>
        <stop offset="1" stop-color="#fc491e"/>
      </linearGradient>
      <linearGradient id="linear-gradient-4" x1="-2.33" y1="8.486" x2="-2.33" y2="8.467" gradientUnits="objectBoundingBox">
        <stop offset="0" stop-color="#2ebe21"/>
        <stop offset="1" stop-color="#7bdb27"/>
      </linearGradient>
    </defs>
    <g id="Group_7883" data-name="Group 7883" transform="translate(20069.998 2831.006)">
      <path id="Path_2368" data-name="Path 2368" d="M18.048-15.872V0H14.24l-.448-1.7A4.456,4.456,0,0,1,11.568-.032a8.793,8.793,0,0,1-2.7.416,7.366,7.366,0,0,1-3.12-.656,7.818,7.818,0,0,1-2.48-1.792A8.26,8.26,0,0,1,1.616-4.72a8.87,8.87,0,0,1-.592-3.248,8.87,8.87,0,0,1,.592-3.248,8.26,8.26,0,0,1,1.648-2.656,7.818,7.818,0,0,1,2.48-1.792,7.366,7.366,0,0,1,3.12-.656,7.962,7.962,0,0,1,2.816.48,4.766,4.766,0,0,1,2.112,1.54l.448-1.568ZM13.632-7.9A5.716,5.716,0,0,0,13.3-10a3.759,3.759,0,0,0-.9-1.376,3.387,3.387,0,0,0-1.312-.768,5.286,5.286,0,0,0-1.616-.24,3.764,3.764,0,0,0-1.616.352,4.5,4.5,0,0,0-1.328.944,4.183,4.183,0,0,0-.9,1.408,4.647,4.647,0,0,0-.32,1.712,4.61,4.61,0,0,0,.32,1.728,4.22,4.22,0,0,0,.9,1.392A4.5,4.5,0,0,0,7.856-3.9a3.764,3.764,0,0,0,1.616.352A4.238,4.238,0,0,0,12.4-4.624,4.266,4.266,0,0,0,13.632-7.9ZM30.08-16.32a7.474,7.474,0,0,1,3.136.656,7.587,7.587,0,0,1,2.48,1.792,8.409,8.409,0,0,1,1.632,2.656,8.87,8.87,0,0,1,.592,3.248,8.87,8.87,0,0,1-.592,3.248A8.409,8.409,0,0,1,35.7-2.064,7.587,7.587,0,0,1,33.22-.272a7.474,7.474,0,0,1-3.14.656,7.543,7.543,0,0,1-2.688-.5A5.463,5.463,0,0,1,25.344-1.38V6.336H20.928V-15.872H24.7l.64,1.088a5.49,5.49,0,0,1,2.08-1.184,9.1,9.1,0,0,1,2.66-.352ZM29.5-3.552A3.764,3.764,0,0,0,31.12-3.9a4.294,4.294,0,0,0,1.312-.944,4.59,4.59,0,0,0,.9-1.392,4.417,4.417,0,0,0,.336-1.728,4.453,4.453,0,0,0-.336-1.712,4.54,4.54,0,0,0-.9-1.408,4.294,4.294,0,0,0-1.312-.944,3.764,3.764,0,0,0-1.62-.352,5.286,5.286,0,0,0-1.616.24,3.387,3.387,0,0,0-1.312.768A3.6,3.6,0,0,0,25.7-10a5.763,5.763,0,0,0-.32,2.032,5.3,5.3,0,0,0,.32,1.936,3.962,3.962,0,0,0,.88,1.376,3.531,3.531,0,0,0,1.312.832,4.715,4.715,0,0,0,1.608.272ZM48.992-16.32a7.474,7.474,0,0,1,3.136.656,7.587,7.587,0,0,1,2.48,1.792,8.409,8.409,0,0,1,1.632,2.656,8.87,8.87,0,0,1,.592,3.248A8.87,8.87,0,0,1,56.24-4.72a8.409,8.409,0,0,1-1.632,2.656,7.587,7.587,0,0,1-2.48,1.792,7.474,7.474,0,0,1-3.136.656,7.543,7.543,0,0,1-2.688-.5A5.463,5.463,0,0,1,44.256-1.38V6.336H39.84V-15.872h3.776l.64,1.088a5.49,5.49,0,0,1,2.08-1.184A9.1,9.1,0,0,1,48.992-16.32ZM48.416-3.552A3.764,3.764,0,0,0,50.032-3.9a4.294,4.294,0,0,0,1.312-.944,4.59,4.59,0,0,0,.9-1.392,4.417,4.417,0,0,0,.336-1.728,4.453,4.453,0,0,0-.34-1.716,4.54,4.54,0,0,0-.9-1.408,4.294,4.294,0,0,0-1.312-.944,3.764,3.764,0,0,0-1.616-.352,5.286,5.286,0,0,0-1.616.24,3.387,3.387,0,0,0-1.312.768A3.6,3.6,0,0,0,44.608-10a5.763,5.763,0,0,0-.32,2.032,5.3,5.3,0,0,0,.32,1.936,3.962,3.962,0,0,0,.88,1.376,3.531,3.531,0,0,0,1.312.832,4.715,4.715,0,0,0,1.616.272Zm22.56-12.32h4.832L65.792,6.336H60.96L64.9-2.4,58.18-15.872H63.1l4.128,8.288Zm15.84-.448a7.474,7.474,0,0,1,3.136.656,7.587,7.587,0,0,1,2.48,1.792,8.409,8.409,0,0,1,1.632,2.656,8.87,8.87,0,0,1,.592,3.248,8.87,8.87,0,0,1-.592,3.248,8.409,8.409,0,0,1-1.632,2.656,7.587,7.587,0,0,1-2.48,1.792,7.474,7.474,0,0,1-3.136.656,7.543,7.543,0,0,1-2.688-.5,5.463,5.463,0,0,1-2.048-1.26V6.336H77.664V-15.872H81.44l.64,1.088a5.49,5.49,0,0,1,2.08-1.184,9.1,9.1,0,0,1,2.656-.352ZM86.24-3.552A3.764,3.764,0,0,0,87.856-3.9a4.294,4.294,0,0,0,1.312-.944,4.59,4.59,0,0,0,.9-1.392A4.417,4.417,0,0,0,90.4-7.968a4.453,4.453,0,0,0-.336-1.712,4.54,4.54,0,0,0-.9-1.408,4.294,4.294,0,0,0-1.312-.944,3.764,3.764,0,0,0-1.616-.352,5.286,5.286,0,0,0-1.616.24,3.387,3.387,0,0,0-1.312.768A3.6,3.6,0,0,0,82.432-10a5.763,5.763,0,0,0-.32,2.032,5.3,5.3,0,0,0,.32,1.936,3.962,3.962,0,0,0,.88,1.376,3.531,3.531,0,0,0,1.312.832,4.715,4.715,0,0,0,1.616.272ZM101.344,0H96.928V-15.872h4.416ZM99.136-18.048a2.349,2.349,0,0,1-1.728-.7,2.349,2.349,0,0,1-.7-1.728,2.4,2.4,0,0,1,.7-1.744,2.323,2.323,0,0,1,1.728-.72,2.323,2.323,0,0,1,1.728.72,2.4,2.4,0,0,1,.7,1.744,2.349,2.349,0,0,1-.7,1.728,2.349,2.349,0,0,1-1.728.7ZM112.48-16.32a7.328,7.328,0,0,1,3.264.72,8.264,8.264,0,0,1,2.528,1.888,8.412,8.412,0,0,1,1.632,2.688,8.736,8.736,0,0,1,.576,3.12,8.961,8.961,0,0,1-.256,2.048H108.9a5.462,5.462,0,0,0,1.824,1.84,4.686,4.686,0,0,0,2.56.752,11.57,11.57,0,0,0,2.416-.224,13.639,13.639,0,0,0,1.968-.576l1.472,2.72a9.174,9.174,0,0,1-2.7,1.28,11.436,11.436,0,0,1-3.248.448,9.35,9.35,0,0,1-3.52-.656,9.251,9.251,0,0,1-2.848-1.776A8.236,8.236,0,0,1,104.9-4.7a7.741,7.741,0,0,1-.7-3.264,8.2,8.2,0,0,1,.64-3.216,8.235,8.235,0,0,1,1.776-2.656,8.739,8.739,0,0,1,2.64-1.808,7.832,7.832,0,0,1,3.224-.676Zm3.62,7.04a4.492,4.492,0,0,0-1.376-2.24,3.32,3.32,0,0,0-2.24-.864,3.541,3.541,0,0,0-2.32.864,4.356,4.356,0,0,0-1.424,2.24Z" transform="translate(-20020.857 -2797.567)"/>
      <path id="Path_2369" data-name="Path 2369" d="M8.832.384A7.23,7.23,0,0,1,5.84-.24,7.671,7.671,0,0,1,3.408-1.952,8.185,8.185,0,0,1,1.76-4.512a8.133,8.133,0,0,1-.608-3.136,8.133,8.133,0,0,1,.608-3.136,8.185,8.185,0,0,1,1.648-2.56A7.671,7.671,0,0,1,5.84-15.056a7.23,7.23,0,0,1,2.992-.624,7.191,7.191,0,0,1,3.424.832,7.678,7.678,0,0,1,2.624,2.272l-2.18,1.7a4.6,4.6,0,0,0-1.616-1.456,4.338,4.338,0,0,0-2.1-.528,4.291,4.291,0,0,0-1.824.4,4.656,4.656,0,0,0-1.5,1.1,5.224,5.224,0,0,0-1,1.664,5.672,5.672,0,0,0-.368,2.048A5.672,5.672,0,0,0,4.656-5.6,5.423,5.423,0,0,0,5.664-3.92a4.751,4.751,0,0,0,1.5,1.136,4.152,4.152,0,0,0,1.824.416A4.053,4.053,0,0,0,11.26-3.04a5.173,5.173,0,0,0,1.664-1.792L15.04-2.976A7.6,7.6,0,0,1,12.384-.528,7.16,7.16,0,0,1,8.832.384ZM21.152,0h-3.1V-23.36h3.1v9.44a5.207,5.207,0,0,1,1.808-1.36,5.582,5.582,0,0,1,2.192-.4,6.385,6.385,0,0,1,2.864.624,6.488,6.488,0,0,1,2.16,1.712,7.547,7.547,0,0,1,1.36,2.56A10.373,10.373,0,0,1,32-7.648V0H28.864V-7.648a6.746,6.746,0,0,0-.3-2.048,5.53,5.53,0,0,0-.832-1.664,4.094,4.094,0,0,0-1.216-1.1,2.91,2.91,0,0,0-1.488-.4,3.559,3.559,0,0,0-1.344.272,3.424,3.424,0,0,0-1.232.88,4.794,4.794,0,0,0-.928,1.6,6.924,6.924,0,0,0-.368,2.4ZM49.92-15.328V0H47.3l-.48-1.76a5.056,5.056,0,0,1-2.048,1.6A6.274,6.274,0,0,1,42.24.384,7.23,7.23,0,0,1,39.248-.24a7.671,7.671,0,0,1-2.432-1.712,8.185,8.185,0,0,1-1.648-2.56,8.133,8.133,0,0,1-.608-3.136,8.133,8.133,0,0,1,.608-3.136,8.185,8.185,0,0,1,1.648-2.56,7.671,7.671,0,0,1,2.432-1.712,7.23,7.23,0,0,1,2.992-.624,6.317,6.317,0,0,1,2.465.5,5.769,5.769,0,0,1,2.111,1.552l.48-1.7ZM42.24-2.368A3.884,3.884,0,0,0,44-2.784,4.5,4.5,0,0,0,45.44-3.92,5.525,5.525,0,0,0,46.4-5.6a5.9,5.9,0,0,0,.352-2.048A5.9,5.9,0,0,0,46.4-9.7a5.525,5.525,0,0,0-.96-1.68A4.5,4.5,0,0,0,44-12.512a3.884,3.884,0,0,0-1.76-.416,3.884,3.884,0,0,0-1.76.416,4.5,4.5,0,0,0-1.44,1.136,5.525,5.525,0,0,0-.96,1.68,5.9,5.9,0,0,0-.352,2.048A5.9,5.9,0,0,0,38.08-5.6a5.525,5.525,0,0,0,.96,1.68,4.5,4.5,0,0,0,1.44,1.136,3.884,3.884,0,0,0,1.76.416ZM61.408-.032a10.417,10.417,0,0,1-2.592.544,4.656,4.656,0,0,1-2.3-.368,3.61,3.61,0,0,1-1.664-1.632,6.907,6.907,0,0,1-.64-3.28v-7.776h-2.24v-2.144l2.24-.64v-4.1h3.1v4.1h4.16v2.784h-4.16v8.256a3.411,3.411,0,0,0,.176,1.216,1.263,1.263,0,0,0,.592.672,2.291,2.291,0,0,0,1.088.224A12.659,12.659,0,0,0,60.8-2.3ZM66.592,0H64.128V-23.36h3.1v9.7a6.367,6.367,0,0,1,2.08-1.488,6.7,6.7,0,0,1,2.752-.528,7.012,7.012,0,0,1,2.96.624,7.225,7.225,0,0,1,2.352,1.712,7.951,7.951,0,0,1,1.552,2.56,8.745,8.745,0,0,1,.56,3.136,8.745,8.745,0,0,1-.56,3.136,7.951,7.951,0,0,1-1.552,2.56A7.225,7.225,0,0,1,75.024-.24a7.012,7.012,0,0,1-2.96.624,6.647,6.647,0,0,1-2.7-.528A6.933,6.933,0,0,1,67.232-1.6Zm5.216-12.864a5.628,5.628,0,0,0-1.76.272,3.626,3.626,0,0,0-1.456.9,4.256,4.256,0,0,0-.976,1.616,7.324,7.324,0,0,0-.352,2.432,6.99,6.99,0,0,0,.352,2.336,4.57,4.57,0,0,0,.976,1.648,3.939,3.939,0,0,0,1.456.976,4.86,4.86,0,0,0,1.76.32,3.884,3.884,0,0,0,1.76-.416,4.5,4.5,0,0,0,1.44-1.136,5.524,5.524,0,0,0,.96-1.68,5.9,5.9,0,0,0,.352-2.048A5.9,5.9,0,0,0,75.968-9.7a5.318,5.318,0,0,0-.96-1.664,4.408,4.408,0,0,0-1.44-1.1,4.011,4.011,0,0,0-1.76-.4ZM89.408.384A7.23,7.23,0,0,1,86.416-.24a7.671,7.671,0,0,1-2.432-1.712,8.185,8.185,0,0,1-1.648-2.56,8.133,8.133,0,0,1-.608-3.136,8.133,8.133,0,0,1,.608-3.136,8.185,8.185,0,0,1,1.648-2.56,7.671,7.671,0,0,1,2.432-1.712,7.23,7.23,0,0,1,2.992-.624,7.264,7.264,0,0,1,2.976.624,7.621,7.621,0,0,1,2.448,1.712,8.185,8.185,0,0,1,1.648,2.56,8.133,8.133,0,0,1,.608,3.136,8.133,8.133,0,0,1-.608,3.136,8.185,8.185,0,0,1-1.648,2.56A7.621,7.621,0,0,1,92.384-.24a7.264,7.264,0,0,1-2.976.624Zm0-13.28a3.884,3.884,0,0,0-1.76.416,4.8,4.8,0,0,0-1.456,1.12,5.153,5.153,0,0,0-.976,1.66,5.9,5.9,0,0,0-.352,2.048A5.9,5.9,0,0,0,85.216-5.6a5.348,5.348,0,0,0,.976,1.68,4.684,4.684,0,0,0,1.456,1.136,3.884,3.884,0,0,0,1.76.416,3.884,3.884,0,0,0,1.76-.416,4.5,4.5,0,0,0,1.44-1.136,5.524,5.524,0,0,0,.96-1.68,5.9,5.9,0,0,0,.352-2.048A5.9,5.9,0,0,0,93.568-9.7a5.318,5.318,0,0,0-.96-1.664,4.606,4.606,0,0,0-1.44-1.12,3.884,3.884,0,0,0-1.76-.416ZM107.9-.032a10.417,10.417,0,0,1-2.592.544,4.656,4.656,0,0,1-2.3-.368,3.61,3.61,0,0,1-1.664-1.632,6.907,6.907,0,0,1-.64-3.28v-7.776h-2.24v-2.144l2.24-.64v-4.1h3.1v4.1h4.16v2.784H103.8v8.256a3.411,3.411,0,0,0,.176,1.216,1.263,1.263,0,0,0,.592.672,2.291,2.291,0,0,0,1.088.224A12.659,12.659,0,0,0,107.3-2.3Z" transform="translate(-19895.996 -2797.567)"/>
      <g id="Group_19_1_" transform="translate(-20069.998 -2831)">
        <g id="Group_18_1_" transform="translate(0.002 6.919)">
          <g id="Path_57_1_" transform="translate(20.709) rotate(90)">
            <path id="Path_65_1_" d="M10.93,9.712a1.209,1.209,0,0,1-1.214,1.214h0C3.208,11.1-.131,6.2,0,1.214A1.209,1.209,0,0,1,1.218,0h8.5A1.209,1.209,0,0,1,10.93,1.214h0Z" transform="translate(4.79 4.823)" fill="none"/>
            <path id="Path_66_1_" d="M15.383,15.412a1.207,1.207,0,0,1-.843.371c-6.509.169-9.847-4.721-9.712-9.712A1.209,1.209,0,0,1,6.041,4.856h8.5A1.209,1.209,0,0,1,15.754,6.07h0v8.5a1.592,1.592,0,0,1-.371.843m3.406,3.406a5.8,5.8,0,0,0,1.754-4.283v-8.5A6.03,6.03,0,0,0,14.506,0h-8.5A5.944,5.944,0,0,0,1.759,1.786,6.284,6.284,0,0,0,0,6.07,14.237,14.237,0,0,0,4.153,16.525a13.848,13.848,0,0,0,10.522,4.047,5.86,5.86,0,0,0,4.114-1.754Z" fill="#21c2fd"/>
          </g>
          <g id="Group_2123" data-name="Group 2123" transform="translate(0 2.127)">
            <path id="Path_70-2_1_" d="M28.63,46.5a3.856,3.856,0,0,1,1.821,2.664c.135,1.72-.54,4.013-2.968,4.148-2.428.034-5.969.034-8.532,0-4.418.034-6.34-3.71-6.171-7.015a14.014,14.014,0,0,1,5.126-10.286c2.428-2.023,6.745-1.349,9.443,1.518,0,0-9.476-.27-9.611,9.544,0,0-.135,1.349,1.551,1.315,2.462-.034,8.566.067,8.6-.1C28.6,47.98,28.664,47.339,28.63,46.5Z" transform="translate(-12.77 -34.841)" fill="url(#linear-gradient)"/>
          </g>
        </g>
        <g id="Group_16_1_" transform="translate(0 23.329)">
          <g id="Path_57-2_1_" transform="translate(0.037 0.027)">
            <path id="Path_65-2_1_" d="M19.019,20.412A1.209,1.209,0,0,1,17.8,21.627h0c-6.509.169-9.847-4.721-9.712-9.712A1.209,1.209,0,0,1,9.306,10.7h8.5a1.209,1.209,0,0,1,1.214,1.214h0Z" transform="translate(-3.295 -5.877)" fill="none"/>
            <path id="Path_66-2_1_" d="M9.261,11.778a1.207,1.207,0,0,1-.843.371c-6.509.169-9.847-4.721-9.712-9.712a1.209,1.209,0,0,1,.354-.86,1.209,1.209,0,0,1,.86-.354h8.5A1.209,1.209,0,0,1,9.632,2.437v8.5a1.294,1.294,0,0,1-.371.843m3.406,3.44a5.8,5.8,0,0,0,1.754-4.283v-8.5A6.03,6.03,0,0,0,8.385-3.6H-.08A6.022,6.022,0,0,0-4.363-1.813a6.266,6.266,0,0,0-1.754,4.25A14.513,14.513,0,0,0-2.036,12.992,13.874,13.874,0,0,0,8.52,16.972a6.045,6.045,0,0,0,4.148-1.754Z" transform="translate(6.125 3.6)" fill="#fec92e"/>
          </g>
          <g id="Group_2124" data-name="Group 2124">
            <path id="Path_68-2_1_" d="M28.527,83.906a3.856,3.856,0,0,0,1.821-2.664c.135-1.72-.54-3.845-2.968-3.979s-5.9-.034-8.431-.034c-4.586-.067-6.34,3.541-6.171,6.913A14.319,14.319,0,0,0,17.6,94.5c2.394,2.023,6.947,1.349,9.611-1.518,0,0-9.308.337-9.611-9.578,0,0-.067-1.383,1.619-1.315,2.428.034,8.5-.067,8.566.1C28.494,82.422,28.561,83.2,28.527,83.906Z" transform="translate(-12.767 -77.192)" fill="url(#linear-gradient-2)"/>
          </g>
        </g>
        <g id="Group_15_1_" transform="translate(15.934 22.789)">
          <g id="Path_57-3_1_" transform="translate(0 0.037)">
            <path id="Path_65-3_1_" d="M8.2,20.412a1.209,1.209,0,0,0,1.214,1.214h0c6.509.169,9.847-4.721,9.712-9.712A1.209,1.209,0,0,0,17.912,10.7h-8.5A1.209,1.209,0,0,0,8.2,11.914h0Z" transform="translate(-3.376 -5.877)" fill="none"/>
            <path id="Path_66-3_1_" d="M-.943,11.778a1.207,1.207,0,0,0,.843.371c6.509.169,9.847-4.721,9.712-9.712A1.209,1.209,0,0,0,8.4,1.223H-.066a1.209,1.209,0,0,0-.86.354,1.209,1.209,0,0,0-.354.86v8.5a1.119,1.119,0,0,0,.337.843m-3.406,3.44A5.8,5.8,0,0,1-6.1,10.935v-8.5A6.03,6.03,0,0,1-4.334-1.834,6.03,6.03,0,0,1-.066-3.6h8.5a6.194,6.194,0,0,1,4.283,1.754,6.284,6.284,0,0,1,1.754,4.283,14.407,14.407,0,0,1-4.114,10.556A13.874,13.874,0,0,1-.2,16.972a6.045,6.045,0,0,1-4.148-1.754Z" transform="translate(6.104 3.6)" fill="#fc491e"/>
          </g>
          <g id="Group_2125" data-name="Group 2125" transform="translate(2.98)">
            <path id="Path_67-2_1_" d="M70.689,82.306a3.856,3.856,0,0,1-1.821-2.664c-.135-1.72.54-3.845,2.968-3.979s5.9-.034,8.431-.034c4.586-.067,6.34,3.541,6.171,6.913a14.451,14.451,0,0,1-4.856,10.32c-2.394,2.023-6.913,1.416-9.578-1.45,0,0,9.308.337,9.611-9.611,0,0,.067-1.383-1.619-1.315-2.428.034-8.5-.067-8.566.1C70.723,80.822,70.655,81.6,70.689,82.306Z" transform="translate(-68.852 -75.592)" fill="url(#linear-gradient-3)"/>
          </g>
        </g>
        <g id="Group_14_1_" transform="translate(22.784)">
          <g id="Path_57-4_1_" transform="translate(20.546) rotate(90)">
            <path id="Path_65-4_1_" d="M10.93,1.218A1.209,1.209,0,0,0,9.716,0h0C3.208-.164-.131,4.726,0,9.717a1.209,1.209,0,0,0,1.214,1.214h8.5A1.209,1.209,0,0,0,10.93,9.717h0Z" transform="translate(4.823 4.759)" fill="none"/>
            <path id="Path_66-4_1_" d="M15.417,5.135a1.207,1.207,0,0,0-.843-.371C8.065,4.6,4.726,9.485,4.861,14.476A1.209,1.209,0,0,0,6.075,15.69h8.5a1.209,1.209,0,0,0,1.214-1.214h0V6.011a1.588,1.588,0,0,0-.371-.877m3.406-3.406a5.8,5.8,0,0,1,1.754,4.283v8.5a6.03,6.03,0,0,1-6.037,6.037h-8.5a6.194,6.194,0,0,1-4.283-1.754A6.284,6.284,0,0,1,0,14.51,14.237,14.237,0,0,1,4.153,4.055,13.848,13.848,0,0,1,14.675.009a5.707,5.707,0,0,1,4.148,1.72Z" fill="#25bb21"/>
          </g>
          <g id="Group_2126" data-name="Group 2126" transform="translate(3.01 2.167)">
            <path id="Path_69-2_1_" d="M91.089,26.1a3.856,3.856,0,0,0-1.821,2.664c-.135,1.72.54,4.013,2.968,4.148,2.428.034,5.969.034,8.532,0,4.418.034,6.34-3.71,6.171-7.015a14,14,0,0,0-5.092-10.286c-2.428-2.023-6.745-1.349-9.443,1.518,0,0,9.476-.27,9.611,9.544,0,0,.135,1.349-1.551,1.315-2.462-.034-8.566.067-8.633-.1C91.123,27.546,91.089,26.939,91.089,26.1Z" transform="translate(-89.252 -14.441)" fill="url(#linear-gradient-4)"/>
          </g>
        </g>
      </g>
    </g>
  </svg>
  