
<svg width="100" height="34" viewBox="0 0 100 34" fill="none" xmlns="http://www.w3.org/2000/svg">
    <title>Tidio logo</title>
<path d="M44.3228 25.0933V10.8885H39.3939V8.43155H52.2148V10.8885H47.2529V25.0933H44.3228ZM60.2398 25.0933V8.43155H65.934C68.8971 8.43155 71.1956 9.17178 72.7602 10.6197C74.3255 12.0668 75.0917 14.0864 75.0917 16.6786C75.0917 19.2698 74.3255 21.3237 72.794 22.8384C71.2617 24.3531 68.898 25.0933 65.7012 25.0933H60.2398ZM63.2029 22.5688H66.1338C68.0319 22.5688 69.4974 22.0639 70.5624 21.0883C71.6283 20.1119 72.1278 18.6306 72.1278 16.7795C72.1278 14.9277 71.5944 13.4806 70.5624 12.4374C69.5304 11.3934 67.932 10.9227 65.8341 10.9227H63.2037V22.5688H63.2029ZM91.3414 25.2619C90.2045 25.2873 89.074 25.083 88.0162 24.661C86.9585 24.2389 85.9947 23.6076 85.1815 22.8041C81.851 19.4144 81.851 13.9427 85.1815 10.5521C85.9921 9.74498 86.9554 9.11137 88.0138 8.68922C89.0722 8.26707 90.2039 8.06504 91.3414 8.09523C93.6374 8.04988 95.8554 8.93388 97.5021 10.5521C100.833 13.9427 100.833 19.4144 97.5021 22.8041C96.6869 23.6051 95.7226 24.2347 94.6652 24.6566C93.6077 25.0784 92.478 25.2842 91.3414 25.2619ZM91.3414 10.5188C90.5795 10.5074 89.8243 10.6642 89.1284 10.9781C88.4326 11.292 87.8128 11.7556 87.3124 12.3364C86.2399 13.52 85.6561 15.0737 85.681 16.6786C85.6414 18.2758 86.2278 19.8242 87.3124 20.9865C87.8201 21.5585 88.4413 22.0161 89.1355 22.3293C89.8298 22.6425 90.5815 22.8044 91.3418 22.8044C92.1021 22.8044 92.8538 22.6425 93.5481 22.3293C94.2423 22.0161 94.8635 21.5585 95.3712 20.9865C96.4221 19.7963 97.0029 18.2568 97.0029 16.6614C97.0029 15.0661 96.4221 13.5266 95.3712 12.3364C94.8706 11.7555 94.2507 11.2919 93.5547 10.978C92.8588 10.6641 92.1034 10.5074 91.3414 10.5188ZM54.0122 11.8983C54.0072 11.0733 54.298 10.2745 54.8308 9.64961C55.3636 9.0247 56.1022 8.61601 56.9101 8.49915H56.9431V21.66C56.9479 22.4848 56.6572 23.2835 56.1247 23.9085C55.5921 24.5335 54.8538 24.9425 54.046 25.0599H54.0122V11.8974V11.8983ZM77.4554 11.8983C77.4504 11.0735 77.7411 10.2747 78.2737 9.64986C78.8063 9.02497 79.5448 8.6162 80.3525 8.49915H80.3863V21.66C80.3912 22.4848 80.1005 23.2835 79.5679 23.9085C79.0354 24.5335 78.297 24.9425 77.4893 25.0599H77.4554V11.8974V11.8983Z" fill="#030714"/>
<path d="M20.1872 1.02163C17.5661 1.01671 15.0279 1.93954 13.0221 3.62667C11.0163 5.31381 9.67223 7.65637 9.22803 10.2395C9.22888 10.2395 9.22972 10.2395 9.23057 10.2395C6.64552 10.6912 4.30263 12.0402 2.61422 14.0491C0.925817 16.058 0.000103331 18.5981 0 21.2223L0 32.3347H11.1395C13.7319 32.337 16.2436 31.4338 18.241 29.7813C20.2383 28.1288 21.5959 25.8306 22.0792 23.2837H19.635H31.3131V12.1349C31.2987 5.99812 26.3239 1.02925 20.1872 1.02163ZM9.06457 12.1713C9.06457 12.1724 9.06457 12.1736 9.06457 12.1747V12.1713Z" fill="#135EEB"/>
<path d="M11.1739 10.1125C10.5315 10.1167 9.88983 10.1714 9.25661 10.2784C9.15058 10.9119 9.09518 11.5528 9.09094 12.1951C9.091 13.6469 9.37697 15.0844 9.93251 16.4254C10.488 17.7665 11.3022 18.9847 12.3285 20.0104C13.3542 21.0367 14.5718 21.8505 15.9119 22.4053C17.252 22.9602 18.6881 23.2451 20.1383 23.2438H22.0237C22.1582 22.5569 22.2255 21.8582 22.2221 21.1578C22.224 19.7057 21.9395 18.2674 21.3848 16.9256C20.8301 15.5838 20.0162 14.3648 18.9898 13.3386C17.9634 12.3124 16.7447 11.4992 15.4036 10.9456C14.0625 10.392 12.6254 10.1089 11.1748 10.1125H11.1739Z" fill="#0A60EA"/>
<path d="M20.3418 23.2292C18.8709 23.2323 17.4138 22.9455 16.0538 22.3854C14.6937 21.8253 13.4575 21.0028 12.4156 19.9649C11.3738 18.927 10.5468 17.6941 9.98186 16.3366C9.41695 14.9791 9.1252 13.5236 9.1233 12.0534C9.12756 11.4033 9.18297 10.7541 9.29037 10.1125C6.68951 10.5662 4.33205 11.9222 2.63275 13.9419C0.933461 15.9616 0.00120297 18.5156 0 21.1546L0 32.3347H11.2117C13.8208 32.337 16.3489 31.4284 18.3591 29.7659C20.3694 28.1034 21.7358 25.7915 22.2222 23.2292H20.3418Z" fill="#15C2FF"/>
<path d="M20.1181 1.02163C17.4808 1.01672 14.9269 1.9379 12.9086 3.62201C10.8903 5.30612 9.5379 7.64448 9.09094 10.223C9.73311 10.1164 10.3828 10.0607 11.0339 10.0564C12.6825 10.0541 14.3112 10.4136 15.8034 11.109C17.2956 11.8044 18.6143 12.8185 19.665 14.0788C20.7158 15.3391 21.4725 16.8143 21.8812 18.3988C22.2898 19.9833 22.3402 21.6378 22.0287 23.2438H31.3132V12.115C31.2987 5.9892 26.293 1.02923 20.1181 1.02163Z" fill="#2C82FF"/>
</svg>
