<?xml version="1.0" standalone="no"?>
<!DOCTYPE svg PUBLIC "-//W3C//DTD SVG 1.0//EN" "http://www.w3.org/TR/2001/REC-SVG-20010904/DTD/svg10.dtd">
<svg xmlns="http://www.w3.org/2000/svg" xmlns:xlink="http://www.w3.org/1999/xlink" id="body_1" width="1024" height="768">

<g transform="matrix(6.564103 0 0 6.564103 -0 226.46155)">
    <path d="M80.8 42.7L80.8 23.7L77.9 23.7L77.9 42.7L78 42.7L80.8 42.7zM77.9 17L80.700005 17L80.700005 20.1L77.9 20.1z" stroke="none" fill="#F5AB40" fill-rule="nonzero" />
    <path d="M84.5 3.7L87.3 3.7L87.3 30.5L84.5 30.5L84.5 3.7z" stroke="none" fill="#00A7DC" fill-rule="nonzero" />
    <path d="M71.3 3.7L74.100006 3.7L74.100006 30.5L71.3 30.5L71.3 3.7zM19.5 12L22.3 12L22.3 30.5L19.5 30.5z" stroke="none" fill="#F5AB40" fill-rule="nonzero" />
    <path d="M97.8 12C 92.600006 12 89.5 16.2 89.5 21.6C 89.5 26.900002 92.8 30.5 98.2 30.5C 101 30.5 103 29.9 104.1 29.4L104.1 29.4L104.299995 29.3L104.299995 26.9C 103.2 27.3 100.799995 28 98.6 28C 95.4 28 92.6 26.2 92.5 21.9L92.5 21.9L105 21.9C 105 21.6 105.1 21.1 105.1 20.4C 105.1 17.1 103.6 12 97.799995 12L97.799995 12L97.8 12zM102 19.5L92.6 19.5C 92.9 17.3 94.299995 14.3 97.5 14.3C 101.2 14.3 102.1 17.5 102 19.5zM121.7 18.6C 121.799995 15 119.899994 12 114.6 12C 112.299995 12 110.299995 12.3 108.799995 13.2L108.799995 13.2L108.799995 15.6C 110.299995 14.900001 112.399994 14.3 114.1 14.3C 117.9 14.5 118.7 16.9 118.7 18.4L118.7 18.4L118.7 20C 110.799995 17.6 107.2 21 107.299995 25.4C 107.399994 28 109.2 30.5 112.899994 30.5C 115.399994 30.5 117.7 29.9 118.799995 28.6L118.799995 28.6L118.799995 30.5L121.7 30.5L121.7 18.6zM118.799995 25.400002C 117.6 26.800001 116.2 28.2 113.799995 28.2C 112.1 28.2 110.399994 27.1 110.399994 25C 110.399994 21.5 114.899994 21.4 118.799995 22.5L118.799995 22.5L118.799995 25.4z" stroke="none" fill="#00A7DC" fill-rule="nonzero" />
    <path d="M68.7 17.7C 67.7 13.900001 65.1 12.1 61.399998 12.000001L61.399998 12.000001L60.3 12.000001C 60.2 12.000001 60 12.000001 59.899998 12.100001C 57.499996 12.500001 55.999996 14.100001 55.999996 14.100001L55.999996 14.100001L55.999996 12L53.199997 12L53.199997 38.9L56 38.9L56 28.6C 56 28.6 57.8 30.300001 60.3 30.5L60.3 30.5L61.899998 30.5C 64.799995 30.2 66.899994 28.9 68.1 26.3C 69.4 23.5 69.5 20.599998 68.7 17.699999M66.2 21.8L66.2 22.199999C 66.1 22.9 65.899994 23.599998 65.799995 24.099998C 65.6 24.599998 64.7 26.8 62.499996 27.399998C 62.099995 27.499998 61.699997 27.599998 61.199997 27.599998C 61.199997 27.599998 57.6 27.599998 55.999996 24.699999L55.999996 24.699999L55.999996 17.599998C 55.999996 17.499998 57.099995 15.199999 60.099995 14.599998C 60.499996 14.499998 61.799995 14.399999 62.999996 14.799998L62.999996 14.799998L63.099995 14.799998L63.299995 14.899999L63.499996 14.999999L63.699997 15.099999C 64.6 15.7 66.2 17.3 66.299995 20.599998C 66.299995 21.099998 66.2 21.399998 66.2 21.8" stroke="none" fill="#F5AB40" fill-rule="nonzero" />
    <path d="M126.8 14.2L126.8 12L123.8 12L123.8 30.5L126.8 30.5L126.8 20.2C 126.8 18.2 127.200005 17.2 127.3 17.1L127.3 17.1L127.9 16.2C 128.2 15.900001 128.8 15.400001 129.7 15.000001C 130 14.900001 130.3 14.800001 130.7 14.700001L130.7 14.700001L131.2 14.700001C 131.59999 14.6 132 14.6 132.5 14.500001L132.5 14.500001L133.9 14.500001L133.9 12C 129.5 11.8 127.299995 13.8 126.799995 14.2L126.799995 14.2L126.8 14.2z" stroke="none" fill="#00A7DC" fill-rule="nonzero" />
    <path d="M17.3 24.3C 17.099998 22.199999 15.799999 21 13.799999 20.4C 13.299999 20.199999 12.699999 20.1 12.199999 20C 11.099998 19.7 9.999999 19.5 8.999999 19.1C 7.099999 18.300001 7.499999 16 8.599999 15.200001C 9.299999 14.700001 10.2 14.400001 11.099999 14.400001L11.099999 14.400001L12.799999 14.400001C 13.4 14.500001 13.9 14.500001 14.499999 14.700001C 15.599999 15.000001 16.5 15.400001 16.5 15.400001L16.5 15.400001L16.5 13C 16.4 13 15.9 12.8 15.9 12.8C 13.9 12.2 11.9 11.900001 9.799999 12.2C 7.0999994 12.599999 4.6999993 14.5 4.999999 18C 5.099999 19.4 5.799999 20.5 7.099999 21C 8.099998 21.5 9.299999 21.7 10.299999 22C 11.199999 22.3 12.199999 22.6 13.099999 22.9C 13.7 23.1 14.099999 23.6 14.2 24.199999C 14.599999 25.599998 14.099999 26.8 12.599999 27.499998C 11.299999 28.099998 9.9 28.099998 8.5 27.999998C 6 27.8 5 27 5 27L5 27L5 29.3C 5 29.3 5.7 29.599998 6.6 29.9L6.6 29.9L7.8 30.199999C 9.2 30.4 10.6 30.4 12.1 30.099998C 13 29.899998 13.900001 29.599998 14.700001 29.199999C 16.6 28.4 17.6 26.499998 17.300001 24.3L17.300001 24.3L17.3 24.3zM19.5 6.4L22.3 6.4L22.3 9.5L19.5 9.5z" stroke="none" fill="#F5AB40" fill-rule="nonzero" />
    <path d="M150.7 16.9C 149.7 13 146.5 12.299999 145.8 12.099999L145.8 12.099999L145.5 12.099999C 143.7 11.9 142.4 12.099999 141.3 12.499999L141.3 12.499999L141.1 12.599999C 139.70001 13.2 139.1 14.099999 139.1 14.099999L139.1 14.099999L139.1 12L136.1 12L136.1 30.4L139.1 30.4L139.1 19.1C 139.1 16.7 141.1 14.700001 143.6 14.700001L143.6 14.700001L143.70001 14.700001C 143.70001 14.700001 145.90001 14.500001 147.20001 16.2L147.20001 16.2L147.30002 16.300001L147.50002 16.6C 147.60002 16.800001 147.70001 16.9 147.80002 17.1C 147.80002 17.2 147.90002 17.300001 147.90002 17.5C 148.00003 17.9 148.20003 18.9 148.20003 20.8L148.20003 20.8L148.20003 30.4L151.20003 30.4L151.20003 19.4C 151.00003 18.4 150.90002 17.6 150.70003 16.9" stroke="none" fill="#00A7DC" fill-rule="nonzero" />
    <path d="M43.8 12C 40.2 12.1 38.6 13.8 38.1 14.5L38.1 14.5L37.899998 14.8L37.899998 14.6L37.8 14.5L37.7 14.3C 37 13.3 36 12.7 35.5 12.5C 34.1 12 32.9 12 32.7 12L32.7 12L32.600002 12C 30.800003 11.9 29.500002 12.6 29.500002 12.6C 28.000002 13.200001 27.300001 14.1 27.300001 14.1L27.300001 14.1L27.300001 12L24.500002 12L24.500002 30.4L27.300001 30.4L27.300001 19.3C 27.300001 18.599998 27.400002 18.099998 27.500002 17.8C 28.000002 15.799999 29.800001 14.4 31.900002 14.4C 33.800003 14.4 35.300003 15.4 36 17C 36.2 17.5 36.3 18.1 36.3 18.7L36.3 18.7L36.3 30.300001L39.1 30.300001L39.1 18.9C 39.1 16.3 41.1 14.4 43.6 14.4C 44.5 14.4 45.399998 14.7 46.1 15.2C 47.3 16 48.1 17.2 48.1 18.8L48.1 18.8L48.1 30.3L51 30.3L51 19.2C 51 17.7 50.7 16.5 50.2 15.500001C 48.4 12.300001 45.100002 12.000001 43.8 12.000001" stroke="none" fill="#F5AB40" fill-rule="nonzero" />
</g>
</svg>