<?xml version="1.0" encoding="utf-8"?>
<!-- Generator: Adobe Illustrator 19.0.0, SVG Export Plug-In . SVG Version: 6.00 Build 0)  -->
<svg version="1.1" id="Layer_1" xmlns="http://www.w3.org/2000/svg" xmlns:xlink="http://www.w3.org/1999/xlink" x="0px" y="0px"
	 viewBox="277 266.3 1146.3 135.7" style="enable-background:new 277 266.3 1146.3 135.7;" xml:space="preserve">
<style type="text/css">
	.st0{fill:#D24B49;}
	.st1{fill:#327EB9;}
</style>
<title>aw-logo1</title>
<g>
	<path class="st0" d="M348.6,292.3c3.8-8.9,7.8-11.9,17.3-11.9c9,0,13.5,3,17.3,11.9l39.6,94.4h-20.9l-10.8-26.6h-50.5l-10.7,26.6
		h-20.8L348.6,292.3z M345.6,346H386l-17.1-42.8c-0.6-1.5-1.6-4.4-3-4.4c-1.3,0-2.4,2.9-3,4.4L345.6,346z"/>
	<path class="st0" d="M478.6,291.3c1-3.9,3.4-10.8,14.5-10.8c10.3,0,13.3,6.1,14.5,10.8l19.5,71.8c0.3,1,1.3,2.6,2.3,2.6
		c0.6,0,1.8-0.6,2.4-3.1l20.8-80.9h20.1l-25.3,91.5c-2,6.9-4.7,14.7-17,14.7c-11.4,0-14.9-6.4-16.8-13.5l-18.4-67.9
		c-0.5-1.8-1.4-2.9-2.1-2.9c-1.2,0-1.6,1.8-2,2.9l-18.6,67.9c-1.7,5.9-4.3,13.5-16.7,13.5c-8.4,0-13.9-3.1-17.1-14.7l-25-91.5h20.1
		l20.9,80.9c0.3,0.9,0.8,3.1,2.3,3.1c0.9,0,2-1.5,2.3-2.6L478.6,291.3z"/>
	<path class="st0" d="M603.4,292.3c3.8-8.9,7.8-11.9,17.3-11.9c9,0,13.5,3,17.3,11.9l39.6,94.4h-20.9l-10.8-26.6h-50.6l-10.6,26.6
		h-20.9L603.4,292.3z M600.4,346h40.4l-17.1-42.7c-0.6-1.5-1.7-4.4-3-4.4s-2.4,2.9-3,4.4L600.4,346z"/>
	<path class="st0" d="M682,299.5c0-4.4,0.1-9.6,4.4-13.7c3.8-3.6,8.7-4.2,12.6-4.2h49.8c7.4,0,16.4,0.4,22.5,9.6
		c5,7.2,5.3,15.4,5.3,23.1s-0.3,15.9-4.5,23.7c-2.7,5.1-7.8,10.8-19.8,10.8h-13.6v0.8l39.9,37h-24.9l-34.5-34c-2.1-2.1-5-5.8-5-8.8
		v-2.4c0-4.2,3.1-7.2,8.9-7.2h19.8c3.5,0,8.1-0.4,10.8-4.6c2.1-3.3,2.4-10.8,2.4-14.4c0-8.3-1.6-12.4-3.8-14.5
		c-3.1-3.1-8-3.1-11.1-3.1h-32.1c-2.1,0-3.6,0.1-5.3,1.6c-2.1,1.8-2.1,3.8-2.1,5.9v81.8h-19.8L682,299.5z"/>
	<path class="st0" d="M808.2,386.7c-7.8,0-11-2.3-11.7-2.9c-2-1.5-4.3-4.6-4.3-10.5v-74.9c0-3.9,0.2-8.4,3.6-12.3
		c1.5-1.6,5-4.5,11.3-4.5h41.1c14.5,0,24.5,5.5,30.8,12.4c10.2,11.3,10.7,26.3,10.7,38.9c0,11.4-0.8,29.4-9.3,40.8
		c-4.2,5.5-12.9,12.9-29.4,12.9L808.2,386.7z M811.9,363.7c0,2.1-0.2,4,1.3,5.7c1.3,1.5,3.3,1.5,5.1,1.5h22.8
		c11,0,18.2-2.4,22.7-9.8c2.5-4,5.3-11.9,5.3-29.7c0-9-0.8-19.5-7.3-26.4c-6-6.3-15.5-7.6-22.5-7.6h-20.6c-1.2,0-3.3,0-4.7,1.1
		c-1.4,1.4-2.2,3.3-2.1,5.3V363.7z"/>
	<path class="st1" d="M901.3,370.9h58.2c9.4,0,9.9-7.8,9.9-11.4c0-4.2-1-9-10.2-11.9l-41.4-13c-1.7-0.4-8.3-2.7-12.5-7.8
		c-4.8-5.7-5.4-13.9-5.4-19.8c0-6.3,0.8-14,6.8-19.5c5.4-5.1,12.2-5.9,17.3-5.9h60.5v15.7h-53.8c-2.7,0-5.8,0.1-8.3,2.4
		c-2.5,2.4-2.7,6.2-2.7,8.1c0,4.6,1.3,9.1,9.8,11.9l38.4,12.1c7,2.3,11.9,4.5,15,7.5c6.3,6,6.9,15.3,6.9,20.3
		c0,6.6-0.9,13.9-5.3,19.5c-5.3,6.8-11.9,7.5-18.8,7.5h-64.5L901.3,370.9z"/>
	<path class="st1" d="M1003.3,386.7v-89.3c0-3.9,0-8.1,3.6-11.7s8.3-4,11.8-4h49.9c5.6,0,14.4,0,20.8,6.3c7.2,6.9,8,18.8,8,27.6
		c0,8.5-0.9,22-9.2,28.8c-3.9,3.1-9.9,5.1-16,5.1H1023v37.2H1003.3z M1060.8,333.7c4.3,0,9.4,0,12.9-3.9c3.2-3.6,3.5-10.3,3.5-14.4
		c0-4.6-0.5-10.9-3.8-14.4c-3.5-3.5-9-3.6-12.3-3.6h-32c-1.3,0-3.1-0.1-4.6,1.4c-1.4,1.3-1.4,3.1-1.4,4.9v30H1060.8z"/>
	<path class="st1" d="M1129.6,292.3c3.8-8.9,7.8-11.9,17.3-11.9c9,0,13.5,3,17.3,11.9l39.6,94.4H1183l-10.8-26.6h-50.5l-10.7,26.6
		h-20.8L1129.6,292.3z M1126.6,346h40.4l-17.1-42.8c-0.6-1.5-1.6-4.4-3-4.4c-1.3,0-2.4,2.9-3,4.4L1126.6,346z"/>
	<path class="st1" d="M1249.3,386.7c-10,0-23.7-1.4-33.5-12.3c-9.9-11.1-10.6-27.1-10.6-38.7c0-15,1.3-30.4,10.2-40.8
		c10.5-12.3,26.8-13.2,34.3-13.2h42.2v15.8h-32.8c-11.7,0-21.6,0.8-27.6,9.8c-3.2,4.6-5.8,12.6-5.8,28.2s2.8,22.2,5,25.5
		c5.4,8.3,15,10,27.5,10h35.5v15.8L1249.3,386.7z"/>
	<path class="st1" d="M1323,386.7c-4.5,0-8.6,0-12-3.3s-3.9-8.3-3.9-12.3v-74.4c0-4.2,1.3-8.4,3.6-10.9c3.4-3.8,8.6-4,12.6-4h67.3
		v15.7h-56.7c-1.8,0-3.9,0.1-5.4,1.5c-1.7,1.5-1.7,3.6-1.7,5.1v21.1h62.3V341h-62.3v24.6c-0.1,1.5,0.5,2.9,1.5,4
		c1.2,1.2,3.6,1.4,6.8,1.4h56.1v15.8L1323,386.7z"/>
</g>
</svg>
