<?xml version="1.0" encoding="utf-8"?>
<!-- Generator: Adobe Illustrator 21.0.2, SVG Export Plug-In . SVG Version: 6.00 Build 0)  -->
<!DOCTYPE svg PUBLIC "-//W3C//DTD SVG 1.1//EN" "http://www.w3.org/Graphics/SVG/1.1/DTD/svg11.dtd">
<svg version="1.1" id="Layer_1" xmlns="http://www.w3.org/2000/svg" xmlns:xlink="http://www.w3.org/1999/xlink" x="0px" y="0px"
	 viewBox="0 0 175 53" style="enable-background:new 0 0 175 53;" xml:space="preserve">
<style type="text/css">
	.st0{fill:#F64747;}
	.st1{fill:#FFFFFF;}
</style>
<title>logo</title>
<desc>Created with Sketch.</desc>
<g id="Symbols">
	<g id="Desktop-Header-Home" transform="translate(-140.000000, -30.000000)">
		<g id="Desktop-Header-Search">
		</g>
	</g>
</g>
<g>
	<g>
		<g>
			<circle class="st0" cx="26.1" cy="26.5" r="26.1"/>
		</g>
	</g>
	<path class="st1" d="M43.9,26.5"/>
	<g>
		<g>
			<path class="st1" d="M31.7,30.8h-6.5c-1,0-1.9,0.8-1.9,1.9v7.1h-6.4v-7.1c0-4.6,3.7-8.3,8.3-8.3h6.5V30.8z"/>
		</g>
		<g>
			<path class="st1" d="M24.9,19.7h10.8v-6.4H24.9c-4.6,0-8.3,3.7-8.3,8.3c0,0,0,3.4,0,5.9c1.1-2.7,3.5-4.7,6.4-5.2v-0.7
				C23,20.5,23.8,19.7,24.9,19.7z"/>
		</g>
	</g>
</g>
<g id="logo" transform="translate(140.000000, 30.000000)">
	<g id="Group-17" transform="translate(69.000000, 10.000000)">
		<polygon id="Fill-8" class="st0" points="-137.6,-22.3 -132.8,-22.3 -132.6,-20.8 -137.6,-20.8 -137.6,-14.2 -139.7,-14.2 
			-139.7,-28.9 -131.8,-28.9 -131.4,-27.3 -137.6,-27.3 		"/>
		<path id="Fill-9" class="st0" d="M-125.3-21.1v6.9h-2.1v-10.5h1.2l0.7,1.7c0.5-0.4,1.1-0.8,1.7-1.2c0.7-0.4,1.3-0.5,1.8-0.5
			l0.5,1.7c-0.5,0-1.2,0.2-1.9,0.6C-124.1-22.1-124.7-21.6-125.3-21.1"/>
		<path id="Fill-10" class="st0" d="M-116.1-20.3h5.4c-0.3-1.9-1.2-2.8-2.6-2.8c-0.8,0-1.4,0.2-1.9,0.7
			C-115.7-21.9-116-21.2-116.1-20.3 M-108.7-19.5v0.6h-7.4c0.1,1,0.4,1.8,1,2.4c0.6,0.6,1.4,0.9,2.5,0.9c0.5,0,1-0.1,1.4-0.2
			c0.4-0.1,1-0.4,1.7-0.7l0.6,1.5c-1.3,0.8-2.5,1.1-3.8,1.1c-1.8,0-3.2-0.5-4.2-1.5c-1-1-1.5-2.3-1.5-4c0-1.1,0.2-2,0.6-2.9
			c0.4-0.8,1-1.5,1.7-1.9c0.8-0.5,1.6-0.7,2.7-0.7c1.5,0,2.7,0.5,3.4,1.5C-109.1-22.4-108.7-21.1-108.7-19.5"/>
		<path id="Fill-11" class="st0" d="M-102.8-20.3h5.4c-0.3-1.9-1.2-2.8-2.6-2.8c-0.8,0-1.4,0.2-1.9,0.7
			C-102.4-21.9-102.7-21.2-102.8-20.3 M-95.4-19.5v0.6h-7.4c0.1,1,0.4,1.8,1,2.4c0.6,0.6,1.4,0.9,2.5,0.9c0.5,0,1-0.1,1.4-0.2
			c0.4-0.1,1-0.4,1.7-0.7l0.6,1.5c-1.3,0.8-2.5,1.1-3.8,1.1c-1.8,0-3.2-0.5-4.2-1.5c-1-1-1.5-2.3-1.5-4c0-1.1,0.2-2,0.6-2.9
			c0.4-0.8,1-1.5,1.7-1.9c0.8-0.5,1.6-0.7,2.7-0.7c1.5,0,2.7,0.5,3.4,1.5C-95.8-22.4-95.4-21.1-95.4-19.5"/>
		<path id="Fill-12" class="st0" d="M-91.7-14.8l0.6-1.4c1,0.5,1.9,0.7,2.8,0.7c0.7,0,1.2-0.1,1.7-0.4c0.4-0.2,0.6-0.6,0.6-1
			c0-0.7-0.8-1.3-2.3-1.8c-2.3-0.7-3.4-1.8-3.4-3.2c0-1,0.4-1.7,1.1-2.2c0.7-0.5,1.7-0.8,2.9-0.8c0.5,0,1.1,0.1,1.7,0.3
			c0.7,0.2,1.2,0.4,1.6,0.7l-0.6,1.4c-0.5-0.2-1-0.4-1.4-0.5c-0.4-0.1-0.9-0.2-1.4-0.2c-0.5,0-1,0.1-1.4,0.4
			c-0.4,0.3-0.5,0.6-0.5,0.9c0,0.3,0.2,0.6,0.6,0.8c0.4,0.2,0.9,0.5,1.6,0.7c2.4,0.9,3.5,2,3.5,3.4c0,1-0.4,1.8-1.1,2.3
			c-0.7,0.5-1.8,0.8-3.2,0.8c-0.5,0-1.1-0.1-1.8-0.3C-90.7-14.3-91.3-14.5-91.7-14.8"/>
		<path id="Fill-13" class="st0" d="M-77-24.5h1.9l0.6,1.6H-77v5.5c0,0.6,0.1,1,0.4,1.3c0.2,0.3,0.6,0.5,1.1,0.5
			c0.3,0,0.6-0.1,1-0.2l0.5,1.6c-0.2,0.1-0.5,0.2-0.8,0.3c-0.3,0.1-0.7,0.1-0.9,0.1c-1,0-1.9-0.3-2.5-0.9c-0.6-0.6-0.9-1.4-0.9-2.4
			v-5.9h-1.5l0-1.6h1.5v-2.6l2.1-0.5V-24.5z"/>
		<path id="Fill-14" class="st0" d="M-63.1-16.7c0.6-0.7,0.9-1.6,0.9-2.7c0-1.1-0.3-2-0.8-2.7c-0.5-0.7-1.3-1-2.3-1
			c-1,0-1.7,0.4-2.3,1.1c-0.6,0.7-0.9,1.6-0.9,2.7c0,1.1,0.3,2,0.8,2.7c0.5,0.7,1.3,1,2.3,1C-64.4-15.7-63.6-16-63.1-16.7
			 M-60.7-16.5c-0.4,0.8-1,1.5-1.8,1.9c-0.8,0.5-1.7,0.7-2.8,0.7c-1.1,0-2-0.2-2.8-0.7c-0.8-0.5-1.4-1.1-1.8-1.9
			c-0.4-0.8-0.6-1.8-0.6-2.9c0-1.1,0.2-2,0.6-2.9c0.4-0.8,1-1.5,1.8-1.9c0.8-0.5,1.7-0.7,2.8-0.7c1.1,0,2,0.2,2.8,0.7
			c0.8,0.5,1.4,1.1,1.8,1.9c0.4,0.8,0.6,1.8,0.6,2.9C-60.1-18.3-60.3-17.4-60.7-16.5"/>
		<path id="Fill-15" class="st0" d="M-48.2-16.4l0.6,1.5c-0.4,0.3-1,0.5-1.7,0.7c-0.7,0.2-1.3,0.3-1.8,0.3c-1.1,0-2-0.2-2.8-0.7
			c-0.8-0.5-1.4-1.1-1.8-1.9c-0.4-0.8-0.6-1.8-0.6-2.9c0-1.1,0.2-2,0.6-2.9c0.4-0.8,1-1.5,1.8-1.9c0.8-0.5,1.7-0.7,2.8-0.7
			c0.5,0,1.1,0.1,1.8,0.3c0.7,0.2,1.3,0.4,1.7,0.7l-0.6,1.5c-0.6-0.2-1.1-0.4-1.5-0.5c-0.4-0.1-0.9-0.2-1.4-0.2
			c-1,0-1.7,0.4-2.3,1.1c-0.6,0.7-0.9,1.6-0.9,2.7c0,1.1,0.3,2,0.8,2.7c0.5,0.7,1.3,1,2.3,1c0.6,0,1.1-0.1,1.5-0.2
			C-49.2-15.9-48.7-16.1-48.2-16.4"/>
		<polygon id="Fill-16" class="st0" points="-41,-17.9 -41,-14.2 -43.1,-14.2 -43.1,-29.2 -41,-29.4 -41,-20.4 -36.4,-24.9 
			-35.2,-23.5 -38.3,-20.6 -34.1,-14.2 -36.5,-14.2 -39.7,-19.2 		"/>
	</g>
</g>
</svg>
