<svg xmlns="http://www.w3.org/2000/svg" width="195.744" height="32.204" viewBox="0 0 195.744 32.204"><path d="M61.55,59.844v.131c0,.393-.3.622-.778.622h-7.1c-.473,0-.778-.262-.778-.654v-.1c0-.916,1.252-1.178.711-1.995l-2.977-4.284-1.691,1.5v1.962c0,1.5,1.522,1.864,1.522,2.812v.131c0,.393-.338.622-.812.622H42.339c-.474,0-.812-.229-.812-.622v-.131c0-.948,1.353-1.308,1.353-2.812V42.087c0-1.536-1.624-1.962-1.624-2.78v-.131c0-.36.305-.523.745-.752L47.412,36c.947-.424,1.522.1,1.522.686V52.224L53.5,48.431c1.049-.85-.845-1.864-.845-2.747v-.131c0-.393.3-.655.778-.655h5.343c.474,0,.778.229.778.622v.131c0,.916-1.826,1.537-3.179,2.747l-2.164,1.93,5.445,7.521C60.163,58.568,61.55,58.928,61.55,59.844Z" transform="translate(-41.256 -35.847)" fill="#fff"/><path d="M81.033,60.012c0,.851-1.962,1.08-3.822,1.08-2.029,0-3.01-.393-3.281-1.57-.71.948-2.063,1.7-4.3,1.7-3.619,0-6.393-1.6-6.393-4.97,0-3.3,2.875-5,6.088-5a6.778,6.778,0,0,1,3.416.818v-.1c-.406-3.859-.642-5.526-2.4-5.526-2.334,0-1.387,4.382-4.4,4.382A2.131,2.131,0,0,1,63.58,48.7c0-2.681,3.315-3.826,6.765-3.826,4.532,0,7.678,2.55,8.219,6.605l.744,5.853C79.612,59.652,81.033,59.1,81.033,60.012ZM73.253,57.2l-.135-1.5c-.236-1.963-1.116-2.714-2.1-2.714-1.014,0-1.725.883-1.725,2.224,0,2.321.812,4.349,2.2,4.349C72.611,59.554,73.253,58.312,73.253,57.2Z" transform="translate(-41.256 -36.146)" fill="#fff"/><path d="M101.531,52.453c0,5.167-3.788,8.469-7.982,8.469a5.775,5.775,0,0,1-4.093-1.439v.294c0,.622-.27.851-.879.851L83.47,60.6c-.474,0-.778-.229-.778-.622v-.131c0-.916,1.353-1.308,1.353-2.845V42.12c0-1.536-1.658-1.8-1.658-2.714v-.131c0-.393.169-.589.913-.917l5.209-2.321c.846-.393,1.59-.2,1.59.752v8.764a5.7,5.7,0,0,1,3.45-.981C97.371,44.573,101.531,47.156,101.531,52.453ZM95.578,55.2c0-3.532-.981-9.025-3.45-9.025-1.218,0-2.029,1.047-2.029,2.877V55.4c0,1.995,1.42,3.924,2.909,3.924C94.732,59.321,95.578,57.882,95.578,55.2Z" transform="translate(-41.256 -35.847)" fill="#fff"/><path d="M103.63,53.015c0-4.84,4.3-8.143,9.131-8.143,5.074,0,9.268,3.4,9.268,8.207,0,4.774-4.093,8.143-9.031,8.143C107.823,61.222,103.63,57.756,103.63,53.015ZM115.873,55.6c0-2.55-1.387-9.123-4.059-9.123-1.623,0-2.2,1.439-2.2,4.088s1.353,9.058,4.093,9.058C115.3,59.62,115.873,58.05,115.873,55.6Z" transform="translate(-41.256 -36.146)" fill="#fff"/><path d="M124.025,53.015c0-4.84,4.3-8.143,9.132-8.143,5.074,0,9.268,3.4,9.268,8.207,0,4.774-4.093,8.143-9.031,8.143C128.219,61.222,124.025,57.756,124.025,53.015ZM136.269,55.6c0-2.55-1.387-9.123-4.059-9.123-1.623,0-2.2,1.439-2.2,4.088s1.353,9.058,4.092,9.058C135.694,59.62,136.269,58.05,136.269,55.6Z" transform="translate(-41.256 -36.146)" fill="#fff"/><path d="M174.49,60.176v.131c0,.393-.339.622-.812.622h-6.764c-.474,0-.813-.229-.813-.622v-.131c0-.917,1.32-1.341,1.219-2.845l-.339-5.787c-.169-3.3-.88-4.513-2.334-4.513-1.386,0-2.1,1.308-2.1,3.106a9.018,9.018,0,0,1,.1,1.374v5.82c0,1.5,1.217,1.929,1.217,2.845v.131c0,.393-.338.622-.811.622h-6.731c-.507,0-.811-.229-.811-.622v-.131c0-.917,1.183-1.341,1.183-2.845V51.118c0-2.78-.879-4.088-2.3-4.088-1.556,0-2.266,1.341-2.266,3.106V57.33c0,1.5,1.488,1.929,1.488,2.845v.131c0,.393-.3.622-.811.622H145.5c-.508,0-.812-.229-.812-.622v-.131c0-.917,1.488-1.341,1.488-2.845V50.888c0-1.537-1.792-1.765-1.792-2.714v-.1c0-.393.338-.589.811-.818L150.273,45c.845-.393,1.285.131,1.285.785v1.178a5.463,5.463,0,0,1,4.5-2.093,6.442,6.442,0,0,1,5.548,2.681,5.453,5.453,0,0,1,5.005-2.681c2.909,0,5.818,1.569,6.224,6.867l.439,5.591C173.373,58.835,174.49,59.259,174.49,60.176Z" transform="translate(-41.256 -36.146)" fill="#fff"/><path d="M193.907,52.818c0,4.839-3.484,8.4-7.745,8.4a6.369,6.369,0,0,1-5.006-2.257V66c0,1.209,1.319,1.209,1.319,1.831v.1c0,.294-.271.424-.676.424h-4.16c-.406,0-.711-.131-.711-.424v-.1c0-.622,1.251-.622,1.251-1.831V48.665c0-1.144-1.352-1.177-1.352-1.831v-.1c0-.262.2-.458.541-.589L179.8,45c.676-.294.947-.033.947.458l-.034,2.158a6.226,6.226,0,0,1,5.412-2.747A7.688,7.688,0,0,1,193.907,52.818Zm-3.01.785c0-4.513-2.232-7.685-5.513-7.685a4.335,4.335,0,0,0-4.228,3.629V55.14c0,2.616,2.232,5.036,4.6,5.036C188.868,60.176,190.9,57.625,190.9,53.6Z" transform="translate(-41.256 -36.146)" fill="#fff"/><path d="M196.377,60.234V60.1c0-.622,1.218-.622,1.218-1.765V48.594c0-1.276-1.218-1.538-1.218-2.028V46.5c0-.229.2-.327.507-.491l2.605-1.242c.71-.327,1.049,0,1.049.458V58.338c0,1.144,1.352,1.144,1.352,1.765v.131c0,.262-.3.425-.71.425h-4.16C196.614,60.66,196.377,60.5,196.377,60.234Zm.338-20.4a2.05,2.05,0,0,1,2.267-2.06,2.029,2.029,0,0,1,2.2,2.06,2,2,0,0,1-2.2,2.027A2.027,2.027,0,0,1,196.715,39.829Z" transform="translate(-41.256 -35.911)" fill="#fff"/><path d="M205.206,52.949c0-4.906,3.72-8.044,8.32-8.077,3.687-.033,6.6,2.223,6.6,4.055,0,.655-.406,1.177-1.353,1.145-1.962-.066-1.928-4.121-5.784-4.153-2.807,0-4.8,2.519-4.8,5.756,0,4.578,2.672,7.488,6.427,7.488a5.105,5.105,0,0,0,4.7-3.074c.27-.491,1.116-.393.981.261-.474,2.388-2.706,4.873-6.629,4.873A8.238,8.238,0,0,1,205.206,52.949Z" transform="translate(-41.256 -36.146)" fill="#fff"/><path d="M223.3,57.461a1.174,1.174,0,0,1,1.319-1.21c2.1,0,1.014,3.99,5.547,3.99,2.164,0,3.856-1.014,3.856-2.878,0-4.807-10.35-1.57-10.35-8.012,0-2.518,2.638-4.479,6.359-4.479,4.194,0,6.6,2.093,6.6,3.859a1.166,1.166,0,0,1-1.218,1.145c-1.928,0-1.082-3.99-5.242-3.99-1.962,0-3.484,1.21-3.484,2.845,0,4.708,10.316,1.5,10.316,8.044,0,2.453-2.638,4.415-6.832,4.415C225.669,61.19,223.3,59,223.3,57.461Z" transform="translate(-41.256 -36.146)" fill="#fff"/></svg>