
<svg width="93" height="16" viewBox="0 0 93 16" fill="none" xmlns="http://www.w3.org/2000/svg">
    <path d="M23.9779 2.38755H28.7425L31.8614 12.878H28.1782L27.7707 10.8653H24.9809L24.5264 12.878H21L23.9779 2.38755ZM27.3946 8.98983L26.3758 4.40025L25.3101 8.98983H27.3946Z" fill="#090A10"/>
    <path d="M36.8331 13C36.0077 13 35.2711 12.8577 34.6233 12.5731C33.9859 12.2884 33.4896 11.8869 33.1343 11.3685C32.7791 10.8501 32.6014 10.2605 32.6014 9.59975V5.23888H35.8301V9.554C35.8301 9.88945 35.9241 10.1537 36.1122 10.3469C36.3107 10.5299 36.5563 10.6213 36.8488 10.6213C37.1309 10.6213 37.3608 10.5299 37.5384 10.3469C37.7265 10.1537 37.8205 9.88945 37.8205 9.554V5.23888H40.9865V9.59975C40.9865 10.2706 40.8089 10.8653 40.4536 11.3837C40.1088 11.892 39.6229 12.2884 38.996 12.5731C38.3691 12.8577 37.6481 13 36.8331 13Z" fill="#090A10"/>
    <path d="M45.9381 13C45.0186 13 44.3028 12.7459 43.7909 12.2376C43.2789 11.7192 43.0229 11.0076 43.0229 10.1029V7.12961H42.0198V5.23888H43.258L44.7156 2.35705H46.2985V5.23888H48.1166V7.12961H46.2985V9.72173C46.2985 9.97586 46.3821 10.1741 46.5493 10.3164C46.7165 10.4587 46.9516 10.5299 47.2546 10.5299C47.5367 10.5299 47.7927 10.4689 48.0226 10.3469L48.1479 12.4816C47.8867 12.6341 47.5471 12.7611 47.1292 12.8628C46.7217 12.9543 46.3247 13 45.9381 13Z" fill="#090A10"/>
    <path d="M53.2856 13C52.4079 13 51.6243 12.8323 50.9347 12.4968C50.2555 12.1614 49.7226 11.6989 49.336 11.1093C48.9599 10.5095 48.7718 9.82338 48.7718 9.05083C48.7718 8.27827 48.9651 7.5972 49.3517 7.00762C49.7383 6.40788 50.2712 5.94536 50.9504 5.62008C51.64 5.29479 52.4236 5.13215 53.3013 5.13215C54.1894 5.13215 54.9731 5.29987 55.6522 5.63532C56.3419 5.96061 56.8747 6.41804 57.2509 7.00762C57.627 7.5972 57.8151 8.27827 57.8151 9.05083C57.8151 9.83355 57.6218 10.5248 57.2352 11.1245C56.8591 11.7141 56.3262 12.1766 55.6366 12.5121C54.9574 12.8374 54.1738 13 53.2856 13ZM53.317 10.7128C53.7454 10.7128 54.0954 10.5604 54.3671 10.2554C54.6492 9.94028 54.7902 9.53876 54.7902 9.05083C54.7902 8.5629 54.6492 8.16645 54.3671 7.8615C54.0954 7.54638 53.7454 7.38882 53.317 7.38882C52.8886 7.38882 52.5333 7.54638 52.2512 7.8615C51.9795 8.16645 51.8437 8.5629 51.8437 9.05083C51.8437 9.53876 51.9795 9.94028 52.2512 10.2554C52.5333 10.5604 52.8886 10.7128 53.317 10.7128Z" fill="#090A10"/>
    <path d="M59.1331 2.38755H62.5185V10.5604H66.2643V12.878H59.1331V2.38755Z" fill="#090A10"/>
    <path d="M70.0899 13C69.2122 13 68.5278 12.7255 68.0367 12.1766C67.5456 11.6277 67.3001 10.8806 67.3001 9.9352V5.23888H70.6228V9.79797C70.6228 10.0318 70.6855 10.2147 70.8108 10.3469C70.9467 10.4689 71.1191 10.5299 71.328 10.5299C71.537 10.5299 71.7512 10.4689 71.9706 10.3469L72.143 12.4663C71.9132 12.6391 71.6102 12.7713 71.234 12.8628C70.8683 12.9543 70.4869 13 70.0899 13ZM68.9614 4.0953C68.4703 4.0953 68.0524 3.9479 67.7076 3.65311C67.3732 3.34816 67.2061 2.97713 67.2061 2.54003C67.2061 2.10292 67.3837 1.73698 67.7389 1.44219C68.0942 1.1474 68.5017 1 68.9614 1C69.4421 1 69.8548 1.15248 70.1996 1.45743C70.5549 1.76239 70.7325 2.12325 70.7325 2.54003C70.7325 2.98729 70.5549 3.35832 70.1996 3.65311C69.8443 3.9479 69.4316 4.0953 68.9614 4.0953Z" fill="#090A10"/>
    <path d="M73.0558 5.34562H76.206V6.90089C76.812 5.72173 77.7733 5.13215 79.0899 5.13215C80.0929 5.13215 80.8766 5.48285 81.4408 6.18424C82.0155 6.87548 82.3028 7.83609 82.3028 9.06607V12.878H79.0115V8.74587C79.0115 8.30877 78.9122 7.97332 78.7137 7.73952C78.5256 7.50572 78.2592 7.38882 77.9144 7.38882C77.6636 7.38882 77.4181 7.47014 77.1777 7.63278C76.9374 7.78526 76.7389 8.00889 76.5822 8.30368C76.4359 8.59848 76.3628 8.93393 76.3628 9.31004V12.878H73.0558V5.34562Z" fill="#090A10"/>
    <path d="M91.5424 13C90.8424 13 90.2781 12.9136 89.8497 12.7408C89.4318 12.5578 89.087 12.2579 88.8153 11.8412C88.5436 11.4244 88.3033 10.8297 88.0944 10.0572L87.1697 10.7738V12.878H83.847L83.8626 2.82973L87.1853 2.35705L87.1697 7.57179L91.1976 4.36976L93 6.76366L90.4766 8.47141C90.602 9.24396 90.7797 9.78272 91.0095 10.0877C91.2499 10.3926 91.5999 10.5451 92.0596 10.5451C92.2477 10.5451 92.4723 10.5146 92.7336 10.4536L92.4201 12.9543C92.1066 12.9848 91.8141 13 91.5424 13Z" fill="#090A10"/>
    <path d="M2.96155 0C1.32593 0 0 1.32593 0 2.96154V8.03846C0 9.67408 1.32593 11 2.96155 11H3.38132V9.30769H2.96155C2.26057 9.30769 1.69231 8.73941 1.69231 8.03846V2.96154C1.69231 2.26057 2.26057 1.69231 2.96155 1.69231H8.03845C8.73949 1.69231 9.30769 2.26057 9.30769 2.96154V8.03846C9.30769 8.73941 8.73949 9.30769 8.03845 9.30769H6.76355V11H8.03845C9.67407 11 11 9.67408 11 8.03846V2.96154C11 1.32593 9.67407 0 8.03845 0H2.96155Z" fill="#090A10"/>
    <path d="M5.69231 7.96154C5.69231 7.26058 6.26058 6.69231 6.96154 6.69231H8.22975V5H6.96154C5.32592 5 4 6.32592 4 7.96154V13.0385C4 14.6741 5.32592 16 6.96154 16H12.0385C13.6741 16 15 14.6741 15 13.0385V7.96154C15 6.32592 13.6741 5 12.0385 5H11.6195V6.69231H12.0385C12.7394 6.69231 13.3077 7.26058 13.3077 7.96154V13.0385C13.3077 13.7394 12.7394 14.3077 12.0385 14.3077H6.96154C6.26058 14.3077 5.69231 13.7394 5.69231 13.0385V7.96154Z" fill="#E97929"/>
    </svg>
    