
<svg width="165" height="51" viewBox="0 0 165 51" fill="none" xmlns="http://www.w3.org/2000/svg">
    <path d="M145.453 6.36656L146.681 7.98123C146.728 8.05606 146.793 8.11773 146.87 8.16049C146.948 8.20325 147.035 8.22569 147.123 8.22569C147.211 8.22569 147.298 8.20325 147.375 8.16049C147.453 8.11773 147.518 8.05606 147.565 7.98123L151.15 0L142.745 1.44889C142.657 1.45058 142.57 1.47551 142.493 1.52121C142.417 1.56691 142.354 1.6318 142.311 1.7094C142.267 1.78699 142.245 1.8746 142.246 1.96353C142.247 2.05246 142.271 2.13962 142.316 2.21632C142.316 2.21632 143.857 4.26687 143.844 4.27915L145.453 6.36656Z" fill="#51D497"/>
    <path d="M65.7758 27.21C65.7758 29.6657 65.1618 31.5076 63.983 32.7354C63.3616 33.3564 62.6175 33.8409 61.7982 34.1581C60.979 34.4752 60.1026 34.618 59.225 34.5773C58.4391 34.6148 57.6536 34.4939 56.9153 34.2218C56.1771 33.9497 55.501 33.5319 54.9274 32.9933C53.8592 31.9373 53.3271 30.4188 53.3312 28.4379V11.1309C51.2969 11.1276 49.3446 11.9322 47.9032 13.3678C46.4619 14.8033 45.6495 16.7525 45.6447 18.7867V29.3772C45.6447 33.2205 46.6986 36.2349 48.8064 38.4205C49.8466 39.4984 51.1002 40.3473 52.4873 40.9129C53.8743 41.4785 55.3641 41.7483 56.8613 41.7051C60.9011 41.7051 63.8562 40.3238 65.7267 37.561V41.7358H73.4009L73.4562 11.3581H65.7819L65.7758 27.21Z" fill="#1D3557"/>
    <path d="M100.157 14.7038C97.8604 11.806 94.6311 10.353 90.4685 10.3449C88.5426 10.3263 86.6352 10.7212 84.8749 11.5028C83.1147 12.2844 81.5426 13.4346 80.2648 14.8757C77.5211 17.9401 76.0004 21.9066 75.9925 26.0198C75.9845 30.133 77.4899 34.1053 80.2219 37.1802C81.4967 38.6243 83.0656 39.7789 84.8233 40.5667C86.5811 41.3546 88.4871 41.7573 90.4133 41.7479C94.5758 41.7479 97.8092 40.3051 100.114 37.4196V41.797H107.782L107.843 11.1982H100.169L100.157 14.7038ZM97.7744 32.0968C96.9984 32.8698 96.0726 33.4761 95.0538 33.8783C94.035 34.2806 92.9447 34.4703 91.8499 34.4359C90.7597 34.4674 89.6747 34.2738 88.6628 33.8671C87.6508 33.4604 86.7335 32.8494 85.9684 32.0722C84.4743 30.4172 83.6473 28.2668 83.6473 26.0372C83.6473 23.8076 84.4743 21.6572 85.9684 20.0021C86.7362 19.2267 87.6562 18.6185 88.6705 18.216C89.6849 17.8134 90.7715 17.6251 91.8622 17.663C92.9562 17.6334 94.0447 17.8272 95.0612 18.2326C96.0778 18.6379 97.001 19.2463 97.7744 20.0206C99.2831 21.6696 100.12 23.8236 100.12 26.0586C100.12 28.2937 99.2831 30.4478 97.7744 32.0968Z" fill="#1D3557"/>
    <path d="M159.482 12.1008C157.823 13.0615 156.566 14.587 155.939 16.3984V11.2904C154.933 11.288 153.937 11.4838 153.007 11.8667C152.076 12.2496 151.231 12.812 150.518 13.5219C149.805 14.2317 149.24 15.0751 148.853 16.0037C148.466 16.9323 148.266 17.9281 148.265 18.9339L148.222 41.9137H155.884L155.915 25.5768C155.915 22.7281 156.842 21.8931 158.683 20.6653C160.529 19.4421 162.76 18.9395 164.952 19.2532V10.701C163.027 10.6709 161.129 11.1586 159.457 12.1131" fill="#1D3557"/>
    <path d="M143.458 34.6939C142.633 34.6992 141.834 34.4145 141.198 33.8896C140.921 33.5867 140.709 33.2295 140.577 32.8406C140.445 32.4517 140.395 32.0395 140.431 31.6303L140.468 10.8853C142.275 9.63834 143.914 8.16286 145.342 6.4956L145.453 6.37281L143.869 4.28543V4.31612C142.787 5.0271 141.661 5.66893 140.498 6.23776V2.60324L132.824 4.90552V9.07416C129.6 9.93178 126.317 10.5474 123.001 10.916V2.56641L115.327 4.87483V11.2414V11.4563C112.576 11.5238 110.741 11.4563 110.415 11.4256H110.366V16.1897V18.5166C110.366 18.8433 110.435 19.1663 110.568 19.4646C110.701 19.763 110.896 20.0298 111.139 20.2477C111.382 20.4656 111.669 20.6297 111.98 20.7291C112.291 20.8286 112.62 20.8613 112.945 20.825L114.222 20.6838L115.302 20.5303V31.5812C115.302 35.6742 116.377 38.5106 118.525 40.0904C120.49 41.5393 123.74 42.0857 128.275 41.7297V34.6939C127.409 34.6939 126.648 34.6939 125.991 34.6632C125.168 34.6639 124.369 34.3797 123.732 33.8589C123.452 33.5564 123.239 33.1983 123.107 32.808C122.974 32.4176 122.926 32.0038 122.964 31.5935V18.9034C125.357 18.2507 127.706 17.451 130 16.509C130.982 16.0997 131.909 15.6904 132.781 15.2811V31.5812C132.781 35.6742 133.856 38.5126 136.004 40.0966C137.961 41.5373 141.211 42.0816 145.754 41.7297V34.7C144.888 34.7 144.121 34.7 143.464 34.6632" fill="#1D3557"/>
    <path d="M36.9207 6.56928C34.0198 3.66532 30.3522 1.64706 26.3467 0.750339C22.3412 -0.14638 18.1632 0.115495 14.301 1.5054C10.4388 2.8953 7.05203 5.3558 4.53647 8.59929C2.02091 11.8428 0.480508 15.7353 0.0953124 19.8218C-0.289883 23.9084 0.496037 28.0202 2.36121 31.6766C4.22639 35.333 7.09377 38.383 10.6282 40.4701C14.1626 42.5572 18.2181 43.5952 22.3207 43.4627C26.4232 43.3303 30.4033 42.0328 33.7957 39.7221C36.0103 38.2012 37.9269 36.2868 39.4501 34.0738C42.3015 29.9136 43.6093 24.8876 43.1474 19.8652C42.6855 14.8428 40.483 10.1397 36.9207 6.56928ZM31.0514 31.2743C29.1837 33.1367 26.8056 34.4034 24.2179 34.9142C21.6302 35.425 18.9492 35.1569 16.5139 34.1438C14.0786 33.1307 11.9984 31.4182 10.5365 29.2228C9.07456 27.0274 8.29653 24.4478 8.30083 21.8101C8.30512 19.1725 9.09154 16.5954 10.5606 14.4048C12.0297 12.2141 14.1154 10.5084 16.554 9.50326C18.9926 8.49812 21.6745 8.23878 24.2605 8.75798C26.8465 9.27719 29.2205 10.5516 31.0821 12.4202C33.5775 14.9248 34.9761 18.318 34.9704 21.8536C34.9646 25.3892 33.555 28.7778 31.0514 31.2743Z" fill="#51D497"/>
    <path d="M41.7646 36.3516C40.978 37.4462 40.1011 38.473 39.1431 39.4213C38.2044 40.3581 37.1923 41.2183 36.1164 41.9937L36.0243 41.8955L45.1659 51.0002L50.8264 45.3642L41.7646 36.3516Z" fill="#51D497"/>
    <path d="M39.4502 34.043C37.9269 36.2559 36.0104 38.1704 33.7958 39.6912L36.0244 41.9014L36.1165 41.9997C37.1924 41.2243 38.2045 40.3641 39.1432 39.4272C40.1012 38.479 40.9781 37.4521 41.7647 36.3575L39.4502 34.043Z" fill="#3C9B6F"/>
    </svg>
    