
<svg width="201" height="55" viewBox="0 0 201 55" fill="none" xmlns="http://www.w3.org/2000/svg">
    <path d="M34.1276 22.6077C33.3036 23.0197 32.6855 21.7836 33.4409 21.3029L49.7853 11.6199C52.6696 10.1777 54.1117 13.9548 51.5021 14.9849L34.1276 22.6077ZM45.8022 3.65373C47.8624 1.3875 44.7034 -1.4968 42.6432 0.906781L29.9385 17.5945C29.3205 18.2126 30.2819 19.2427 30.9687 18.6246L45.8022 3.65373ZM27.0542 16.221C26.7796 17.1825 25.2687 16.8391 25.6808 15.809L26.5049 12.238C26.9856 10.7271 28.8398 11.3452 28.2904 12.7873L27.0542 16.221ZM22.3158 15.7403C22.3158 16.5644 20.9423 16.7704 20.8736 15.8777L20.1869 10.8645C19.9809 9.28498 22.3158 9.07896 22.3158 10.7271V15.7403ZM17.852 16.8391C18.264 17.6632 16.9592 18.3499 16.5472 17.5258L13.3882 12.3753C12.4954 10.9332 14.6243 9.90305 15.3797 11.3452L17.852 16.8391ZM14.1436 19.5861C14.899 20.2041 13.8689 21.2342 13.1821 20.6848L7.41355 16.2897C5.9714 15.1909 7.5509 13.4054 8.92437 14.6415L14.1436 19.5861ZM11.6713 23.3631C12.5641 23.6378 12.2207 25.08 11.2593 24.8053L3.15578 22.745C1.57628 22.333 2.12567 19.7921 3.97986 20.4101L11.6713 23.3631ZM10.9159 29.4064L1.91965 30.7112C0.134132 30.9172 -0.140563 28.3076 1.7823 28.2389L10.7786 27.9643C11.946 27.8956 11.8773 29.3377 10.9159 29.4064ZM12.3581 33.8015L3.49915 38.9521C1.91965 39.7761 0.752196 37.4412 2.40037 36.6171L11.6027 32.428C12.5641 31.9473 13.2508 33.3208 12.3581 33.8015ZM15.4484 37.5099L8.37498 46.3001C7.20753 47.7423 5.28466 46.1628 6.45212 44.7207L14.3496 36.5485C15.0363 35.7244 16.0664 36.7545 15.4484 37.5099ZM19.6375 39.7075L16.6158 51.2447C16.1351 53.3049 12.9075 52.4121 13.8689 50.0772L18.264 39.1581C18.6074 38.2653 19.9809 38.8147 19.6375 39.7075ZM24.4446 40.0508L26.1615 52.5495C26.6422 54.8844 23.0712 55.1591 23.0025 52.8242V40.1882C22.8651 39.2268 24.376 39.0894 24.4446 40.0508ZM28.9771 38.6087L36.0505 50.3519C37.3553 52.4121 34.265 53.9916 33.1662 51.7254L27.6723 39.2954C27.2603 38.4713 28.4964 37.7846 28.9771 38.6087ZM32.8228 35.3123L44.154 43.7592C46.5576 45.5447 44.0853 48.4977 41.8878 46.3001L31.9301 36.4111C31.2433 35.7931 32.1361 34.763 32.8228 35.3123ZM35.0891 30.7112L50.266 34.6943C52.4635 35.381 51.5021 38.54 49.1672 37.7846L34.677 32.1534C33.7843 31.81 34.1276 30.5052 35.0891 30.7112ZM35.4324 27.3462C35.3638 27.3462 35.2951 27.3462 35.1578 27.3462C34.4023 27.2088 34.4023 26.0414 35.2264 25.904L52.1202 23.3631C55.1418 23.0884 55.0731 26.8655 52.3949 27.0028L35.4324 27.3462Z" fill="url(#paint0_radial_610_13)"/>
    <path d="M92.7048 17.2484C93.8723 17.2484 94.765 18.1411 94.765 19.2399C94.765 20.4074 93.8723 21.3001 92.7048 21.3001L76.2231 21.2314V21.3001C75.399 21.3001 74.7123 21.3688 74.2316 21.5748C73.8882 21.7122 73.6135 21.9182 73.4762 22.1242C73.3388 22.3989 73.2701 22.6736 73.2701 22.9483C73.3388 23.223 73.4075 23.4977 73.5448 23.635C73.7508 23.9097 74.1629 24.1157 74.6436 24.3218C75.2617 24.5965 76.0858 24.8025 76.9098 25.0085H76.9785L89.1338 27.4808C90.6446 27.7554 92.1554 28.3048 93.2542 29.3349C94.353 30.2964 95.0397 31.6012 95.0397 33.3867V33.4554C95.0397 34.8288 94.4217 36.2023 93.3229 37.1638C92.2928 38.1252 90.8506 38.7433 88.9278 38.7433H88.7904V38.8119H71.5533C70.3858 38.8119 69.4931 37.8505 69.4931 36.7517C69.4931 35.6529 70.3858 34.6915 71.5533 34.6915H88.7904H88.9278C89.6832 34.6915 90.2326 34.4855 90.5759 34.2108C90.8506 33.9361 90.988 33.6614 90.988 33.3867C90.988 32.906 90.7819 32.5626 90.5759 32.3566C90.0265 31.9445 89.2711 31.6699 88.447 31.4638H88.3097L76.2231 28.9916H76.0858C75.0556 28.7856 74.0255 28.5109 73.0641 28.0988C72.034 27.6868 71.0726 27.0687 70.3858 26.2446C69.6991 25.4205 69.2871 24.3218 69.2184 23.1543C69.1497 22.1242 69.4244 21.0254 69.9738 20.064C70.5919 19.1026 71.4846 18.3471 72.6521 17.7978C73.6135 17.3857 74.8496 17.1797 76.2231 17.1797L92.7048 17.2484Z" fill="white"/>
    <path d="M123.128 17.25C124.227 17.25 125.12 18.2114 125.12 19.3102C125.12 20.409 124.227 21.3018 123.128 21.3018H105.822C104.243 21.3018 103.281 21.9885 102.869 22.8126C102.732 23.1559 102.595 23.4306 102.595 23.774C102.595 24.0487 102.663 24.3921 102.801 24.6668C103.213 25.4222 104.174 26.0402 105.822 26.0402H115.986C117.154 26.0402 118.046 26.933 118.046 28.0318C118.046 29.1992 117.154 30.092 115.986 30.092H105.822C102.389 30.092 100.191 28.5125 99.161 26.3836C98.749 25.5595 98.543 24.6668 98.543 23.7053C98.543 22.8126 98.749 21.9198 99.161 21.0957C100.191 18.8982 102.457 17.25 105.822 17.25H123.128Z" fill="white"/>
    <path d="M123.128 34.6924C124.227 34.6924 125.12 35.5852 125.12 36.684C125.12 37.8514 124.227 38.7442 123.128 38.7442H105.822C103.35 38.7442 101.427 37.7827 100.191 36.4093C100.122 36.4093 100.122 36.3406 100.054 36.2719C99.5731 35.7225 99.2297 35.1045 98.955 34.4177C98.6803 33.731 98.543 32.9756 98.543 32.2202C98.543 30.572 99.2297 28.9238 100.603 27.7564C100.878 27.4817 101.153 27.207 101.496 27.0009C101.839 26.8636 102.183 26.6576 102.526 26.5202C102.869 26.3829 103.144 26.3142 103.419 26.2455C103.762 26.1082 104.037 26.0395 104.38 26.0395C105.479 25.8335 106.509 26.6576 106.646 27.7564C106.852 28.8551 106.028 29.8852 104.93 30.0226C104.792 30.0913 104.586 30.0913 104.449 30.1599C104.312 30.1599 104.174 30.2286 104.037 30.2973C103.9 30.366 103.762 30.4346 103.625 30.5033C103.487 30.572 103.35 30.6407 103.281 30.778C102.869 31.1214 102.663 31.6708 102.663 32.2202C102.663 32.4949 102.663 32.7695 102.801 32.9756C102.869 33.2503 103.007 33.4563 103.144 33.6623L103.213 33.731C103.694 34.2804 104.586 34.6924 105.822 34.6924H123.128Z" fill="white"/>
    <path fill-rule="evenodd" clip-rule="evenodd" d="M159.319 34.6914C160.418 34.6914 161.379 35.5842 161.379 36.7516C161.379 37.8504 160.418 38.8118 159.319 38.8118C158.152 38.8118 157.259 37.8504 157.259 36.7516C157.259 35.5842 158.152 34.6914 159.319 34.6914Z" fill="white"/>
    <path d="M167.697 37.9895C167.01 38.8822 165.774 39.0883 164.813 38.4702C163.92 37.8521 163.714 36.5473 164.332 35.6546C164.469 35.5172 165.499 33.457 166.667 31.0534C168.178 28.1005 169.963 24.6668 170.856 22.9499C171.955 20.9584 172.779 19.6536 174.015 18.6921C175.32 17.662 176.83 17.25 179.028 17.25C180.127 17.3187 181.088 18.2114 181.02 19.3102C181.02 20.4777 180.127 21.3704 178.959 21.3018C177.792 21.3018 177.036 21.5078 176.487 21.9198C175.869 22.4005 175.251 23.362 174.427 24.8728C173.465 26.5896 171.749 30.0233 170.306 32.8389C169.002 35.4486 167.903 37.6461 167.697 37.9895Z" fill="white"/>
    <path d="M193.173 35.6546C193.791 36.5473 193.585 37.8521 192.624 38.4702C191.731 39.0883 190.426 38.8822 189.808 37.9208C189.534 37.5774 188.435 35.4485 187.13 32.8389C185.688 29.9546 183.971 26.5896 183.078 24.8728C182.186 23.362 181.636 22.4005 180.949 21.8511C180.469 21.4391 179.713 21.3018 178.477 21.3018C177.378 21.3018 176.417 20.409 176.417 19.3102C176.417 18.2114 177.31 17.25 178.409 17.25C180.675 17.25 182.186 17.662 183.49 18.6921C184.658 19.6536 185.551 20.9584 186.581 22.8812C187.542 24.5981 189.328 28.1005 190.77 30.9848C192.006 33.457 193.036 35.4485 193.173 35.6546Z" fill="white"/>
    <path d="M196.335 19.1712C196.335 18.0724 197.296 17.1797 198.395 17.1797C199.494 17.1797 200.455 18.0724 200.455 19.1712V36.7517C200.455 37.8505 199.494 38.7433 198.395 38.7433C197.296 38.7433 196.335 37.8505 196.335 36.7517V19.1712Z" fill="white"/>
    <path fill-rule="evenodd" clip-rule="evenodd" d="M170.098 29.1289H180.811C181.91 29.1289 182.803 30.0217 182.803 31.1891C182.803 32.2879 181.91 33.1807 180.811 33.1807H170.098C168.999 33.1807 168.106 32.2879 168.106 31.1891C168.106 30.0217 168.999 29.1289 170.098 29.1289Z" fill="white"/>
    <path d="M137.682 17.25H146.953C149.906 17.25 152.584 18.4175 154.507 20.409C156.499 22.3319 157.666 25.0101 157.666 27.9631C157.666 30.9848 156.499 33.663 154.507 35.5859C152.584 37.5774 149.906 38.7449 146.953 38.7449H137.682C134.729 38.7449 132.051 37.5774 130.059 35.5859C128.137 33.663 126.9 30.9848 126.9 27.9631C126.9 25.0101 128.137 22.3319 130.059 20.409C132.051 18.4175 134.729 17.25 137.682 17.25ZM146.953 21.3018H137.682C135.828 21.3018 134.18 22.0572 132.944 23.2933C131.776 24.4607 131.021 26.1776 131.021 27.9631C131.021 29.8173 131.776 31.5341 132.944 32.7016C134.18 33.9377 135.828 34.6931 137.682 34.6931H146.953C148.739 34.6931 150.455 33.9377 151.623 32.7016C152.859 31.5341 153.614 29.8173 153.614 27.9631C153.614 26.1776 152.859 24.4607 151.623 23.2933C150.455 22.0572 148.739 21.3018 146.953 21.3018Z" fill="white"/>
    <defs>
    <radialGradient id="paint0_radial_610_13" cx="0" cy="0" r="1" gradientUnits="userSpaceOnUse" gradientTransform="translate(17.0833 21.4543) rotate(84.2332) scale(27.4139 27.0622)">
    <stop offset="0.1875" stop-color="#FF5E2B"/>
    <stop offset="0.526042" stop-color="#DBF253"/>
    <stop offset="1" stop-color="#25CA57"/>
    </radialGradient>
    </defs>
    </svg>
    