<?xml version="1.0" encoding="utf-8"?>
<!-- Generator: Adobe Illustrator 25.2.2, SVG Export Plug-In . SVG Version: 6.00 Build 0)  -->
<svg version="1.1" id="Calque_1" xmlns="http://www.w3.org/2000/svg" xmlns:xlink="http://www.w3.org/1999/xlink" x="0px" y="0px"
	 viewBox="0 0 1621.9 560.72" style="enable-background:new 0 0 1621.9 560.72;" xml:space="preserve">
<style type="text/css">
	.st0{fill:#222222;}
</style>
<g>
	<path class="st0" d="M648,273.19h40.01c1.78-0.02,3.25-1.39,3.39-3.16v-54h41.34c1.79-0.01,3.36-1.21,3.84-2.94l3.16-31.62
		c0.01-0.16,0.01-0.32,0-0.48c-0.13-1.49-1.45-2.59-2.94-2.46h-45.4v-20.55h57.38c0.13,0.01,0.25,0.01,0.38,0
		c1.76-0.11,3.11-1.63,3-3.39v-34.11c-0.07-1.8-1.58-3.22-3.38-3.16H648c-1.73,0.04-3.12,1.43-3.16,3.16V269.8
		C644.86,271.58,646.23,273.05,648,273.19z"/>
	<path class="st0" d="M765.05,273.18h39.75c1.85-0.04,3.35-1.54,3.39-3.39v-75.67c2.94-5.65,10.62-9.49,19.2-9.49h5.87
		c0.05,0,0.1,0,0.15,0c1.71-0.04,3.06-1.45,3.02-3.16V152.1c0-0.05,0-0.1,0-0.15c-0.04-1.71-1.46-3.05-3.17-3.01h-5.87
		c-11.97,0-23.04,5.19-29.82,13.55l-3.38-9.94c-0.68-1.8-1.81-3.38-3.62-3.38h-25.52c-1.78,0.02-3.25,1.39-3.39,3.16v117.46
		C761.7,271.64,763.2,273.14,765.05,273.18z"/>
	<path class="st0" d="M903.07,276.57c17.39,0,34.76-4.75,46.76-12.65c1.58-0.91,2.03-1.81,1.58-3.39l-9.69-28.01
		c-0.03-0.21-0.1-0.42-0.19-0.61c-0.55-1.22-1.99-1.75-3.2-1.2c-10.88,4.86-22.65,7.4-34.56,7.46c-19,0-19-14.24-19-14.24h72.51
		c2.04,0,3.17-0.9,3.39-2.7c0.64-3.35,0.94-6.76,0.91-10.17c0-41.11-22.14-65.28-59.64-65.28c-39.3,0-65.51,26.2-65.51,65.51
		C836.43,250.36,863.07,276.57,903.07,276.57z M901.49,183.73c9.03,0,15.13,6.55,15.13,16.49h-32.07
		C884.55,190.28,891.32,183.73,901.49,183.73z"/>
	<path class="st0" d="M1094.86,221.23c0.64-3.35,0.94-6.76,0.9-10.17c0-41.11-22.13-65.28-59.63-65.28
		c-39.31,0-65.51,26.2-65.51,65.51c0,39.07,26.64,65.28,66.64,65.28c17.39,0,34.76-4.75,46.76-12.65c1.58-0.91,2.03-1.81,1.58-3.39
		l-9.66-28.01c-0.03-0.21-0.1-0.42-0.19-0.62c-0.55-1.21-1.98-1.74-3.19-1.19c-10.88,4.86-22.65,7.4-34.56,7.46
		c-19,0-19-14.24-19-14.24h72.47C1093.5,223.93,1094.63,223.03,1094.86,221.23z M1018.74,200.22c0-9.94,6.77-16.49,16.94-16.49
		c9.03,0,15.13,6.55,15.13,16.49H1018.74z"/>
	<path class="st0" d="M1111.84,273.16h81.55c1.79-0.08,3.29-1.39,3.61-3.16l3.14-34.32c0-0.03,0-0.07,0-0.1
		c0.03-1.66-1.29-3.02-2.94-3.06h-41.98V120.7c-0.05-1.85-1.53-3.33-3.38-3.38h-40c-1.85,0.04-3.34,1.53-3.38,3.38V270
		C1108.6,271.77,1110.07,273.14,1111.84,273.16z"/>
	<path class="st0" d="M1338.84,211.06c0-39.06-26.67-65.28-66.43-65.28s-66.41,26.2-66.41,65.51c0,39.07,26.68,65.28,66.43,65.28
		S1338.84,250.36,1338.84,211.06z M1250.06,211.29L1250.06,211.29c0-14.91,9.01-24.85,22.37-24.85s22.36,9.94,22.36,24.62
		c0,14.91-8.99,24.85-22.36,24.85S1250.06,225.97,1250.06,211.29z"/>
	<path class="st0" d="M1473.04,148.97h-24c-1.8,0-3.84,1.39-5.19,3.39l-4.07,6.32c-5.83-8.13-19.61-12.87-37-12.87
		c-34.56,0-54.89,23.7-54.89,63.7c0,35.69,21.89,59.41,54.89,59.41c12.65,0,23.49-4.78,27.1-12l0.01,6.56
		c0,12.87-8.58,20.32-22.81,20.32c-15.14,0-30.04-4.74-39.76-12.65c-1.39-0.9-2.71-0.22-3.39,1.36l-11.52,28
		c-0.41,1.44,0.14,2.98,1.36,3.84c11.07,9.04,30.94,14.23,53.31,14.23c38.35,0,69.35-22.81,69.35-56.92v-109.3
		c0.01-0.13,0.01-0.26,0-0.39C1476.32,150.2,1474.8,148.86,1473.04,148.97z M1429.88,220.98c0,0-3.38,10.16-15.58,10.16
		c-11.3,0-17.85-8.12-17.85-21.68S1403,188,1414.3,188c12.2,0,15.58,10.18,15.58,10.18V220.98z"/>
	<path class="st0" d="M1555.49,145.78c-39.76,0-66.41,26.2-66.41,65.51c0,39.07,26.65,65.28,66.41,65.28s66.41-26.21,66.41-65.51
		C1621.9,172,1595.25,145.78,1555.49,145.78z M1555.49,235.91c-13.36,0-22.36-9.94-22.36-24.62c0-14.91,9-24.85,22.36-24.85
		s22.36,9.94,22.36,24.62C1577.85,225.97,1568.85,235.91,1555.49,235.91z"/>
	<path class="st0" d="M700.43,301.19l-52.43,0c-1.77,0.14-3.14,1.61-3.16,3.39v149.09c0.02,1.78,1.39,3.25,3.16,3.39h52.43
		c47.89,0,79.74-31.4,79.74-77.94C780.17,332.14,748.32,301.19,700.43,301.19z M703.14,416.4H691.4v-74.55h11.74
		c17.4,0,29.14,14.9,29.14,37.27S720.54,416.4,703.14,416.4z"/>
	<path class="st0" d="M854.73,329.65c-39.31,0-65.51,26.21-65.51,65.51c0,39.08,26.64,65.28,66.64,65.28
		c17.39,0,34.76-4.74,46.76-12.65c1.58-0.9,2.03-1.8,1.58-3.38l-9.69-28.01c-0.03-0.22-0.1-0.43-0.19-0.63
		c-0.56-1.21-1.99-1.74-3.2-1.18c-10.88,4.86-22.65,7.4-34.56,7.45c-19,0-19-14.23-19-14.23h72.51c2.03,0.01,3.16-0.9,3.39-2.71
		c0.64-3.35,0.94-6.75,0.9-10.16C914.36,353.82,892.22,329.65,854.73,329.65z M837.33,384.09c0-9.94,6.78-16.49,16.94-16.49
		c9.04,0,15.14,6.55,15.14,16.49H837.33z"/>
	<path class="st0" d="M971.97,369.41c0-3.61,3.17-5.87,7.91-5.42c7.7,0,17.19,3.61,26,9.26c0.18,0.14,0.38,0.25,0.6,0.32
		c0.98,0.31,2.02-0.24,2.33-1.22l11.52-26.66c0.46-1.16-0.22-2.26-1.35-3.16c-11.97-7.68-29.59-12.88-44.28-12.88
		c-30.72,0-51.27,16.27-51.27,40.44c0,42.47,49.47,38.85,49.47,50.37c0,3.39-3.17,6.1-7.91,5.65c-7.7,0-17.19-4.07-26-9.26
		c-0.18-0.14-0.38-0.25-0.6-0.32c-0.98-0.31-2.02,0.24-2.33,1.22l-11.52,26.2c-0.46,1.36,0.22,2.49,1.35,3.62
		c12.63,7.68,30.95,12.87,45.63,12.87c30.05,0,49.92-16.26,49.92-40.43C1021.44,377.09,971.97,381.41,971.97,369.41z"/>
	<path class="st0" d="M1077.7,332.82l-39.76,0.02c-1.78,0.02-3.25,1.39-3.39,3.16v117.67c0.05,1.85,1.54,3.34,3.39,3.39h39.76
		c1.85-0.05,3.34-1.54,3.39-3.39V335.98C1080.95,334.21,1079.48,332.84,1077.7,332.82z"/>
	<path class="st0" d="M1057.6,283.12c-14.91,0-24.85,9.27-24.85,23.27c0,13.36,9.95,22.36,24.85,22.36s24.84-9.03,24.84-22.36
		C1082.44,292.38,1072.51,283.12,1057.6,283.12z"/>
	<path class="st0" d="M1218.9,332.85h-24c-1.8,0-3.84,1.39-5.19,3.39l-4.07,6.32c-5.83-8.13-19.61-12.88-37-12.88
		c-34.57,0-54.9,23.7-54.9,63.7c0,35.7,21.9,59.41,54.9,59.41c12.65,0,23.49-4.77,27.1-12l0.01,6.56c0,12.88-8.58,20.33-22.81,20.33
		c-15.14,0-30.05-4.74-39.76-12.65c-1.39-0.9-2.71-0.22-3.39,1.36l-11.52,28c-0.41,1.44,0.14,2.98,1.36,3.84
		c11.07,9.03,30.94,14.23,53.31,14.23c38.4,0,69.34-22.81,69.34-56.93V336.24c0.01-0.13,0.01-0.27,0-0.4
		C1222.17,334.08,1220.66,332.74,1218.9,332.85z M1175.74,404.88c0,0-3.39,10.16-15.58,10.16c-11.3,0-17.85-8.14-17.85-21.69
		c0-13.55,6.55-21.45,17.85-21.45c12.19,0,15.58,10.16,15.58,10.16V404.88z"/>
	<path class="st0" d="M1309.93,329.65c-13.78,0-29.14,4.75-36.37,12.66l-2.94-7.21c-0.6-1.45-2.06-2.35-3.62-2.26h-25.29
		c-0.21-0.02-0.42-0.02-0.64,0c-1.57,0.18-2.7,1.59-2.52,3.16v117.67c0.05,1.85,1.54,3.34,3.39,3.39h39.75
		c1.85-0.05,3.34-1.54,3.39-3.39v-69.12c0,0,2.04-12.65,14.91-12.65c7.01,0,11.07,5.23,11.07,14.23v67.54
		c-0.01,0.09-0.01,0.17-0.01,0.26c0.01,1.74,1.43,3.14,3.17,3.13h39.76c1.85-0.05,3.34-1.54,3.39-3.39v-74.55
		C1357.37,343.88,1340.65,329.65,1309.93,329.65z"/>
	<path class="st0" d="M190.24,203.29h-62.41c-4.49-1.16-9.69-0.52-14.79,2.75c-3.05,2.23-5.13,5.49-5.93,9.13
		c-0.53,1.7-0.8,3.51-0.76,5.39c0.03,1.11,0.17,2.18,0.4,3.22v48.96c-0.28,1.29-0.43,2.62-0.4,3.99c0.03,1.11,0.17,2.18,0.4,3.22
		v45.68v0.54c0,10.05,8.25,18.18,18.25,17.36c8.74-0.73,15.45-8.03,15.46-16.8v-0.58v-32.98h26.78c0.27,0.01,0.55,0.01,0.82,0
		c9.31-0.23,16.67-7.96,16.44-17.27c-0.23-9.31-7.96-16.67-17.27-16.44h-26.78V237h49.78c0.27,0.01,0.55,0.01,0.82,0
		c9.31-0.23,16.67-7.96,16.44-17.27C207.28,210.43,199.55,203.06,190.24,203.29z"/>
	<path class="st0" d="M313.67,309.89H263.9v-89.77c0-0.2,0-0.39,0-0.59c0-0.08,0-0.15,0-0.23c-0.23-9.31-7.96-16.67-17.27-16.44
		c-9,0.22-16.16,7.46-16.42,16.36c0,0.11-0.02,0.21-0.02,0.32v0.59v103c-0.29,1.3-0.44,2.65-0.41,4.04
		c0.11,4.7,2.15,8.91,5.33,11.89c3.15,3.16,7.53,5.08,12.34,4.96c1.13-0.03,2.22-0.17,3.28-0.41h62.94
		c9.31-0.01,16.84-7.55,16.85-16.86C330.51,317.44,322.97,309.9,313.67,309.89z"/>
	<path class="st0" d="M383.59,203.24c-1.27-0.27-2.59-0.42-3.95-0.39c-9,0.22-16.16,7.46-16.42,16.36c0,0.11-0.02,0.21-0.02,0.32
		v0.59v106.03v0.59c0.01,9.31,7.55,16.85,16.86,16.86c0.33,0,0.65-0.03,0.97-0.05c0.14,0,0.28,0.02,0.42,0.02h27.09
		c40.9,0,69.37-29.67,69.37-70.17c0-40.5-28.47-70.16-69.37-70.16H383.59z M443.21,273.38c0,18.24-11.77,36.7-34.28,36.7h-12.02
		v-73.4l0.59,0h11.43C431.44,236.68,443.21,255.14,443.21,273.38z"/>
	<path class="st0" d="M82.12,82.12C29.53,134.7-0.01,206.02-0.01,280.39C0,435.22,125.53,560.73,280.36,560.72
		c74.4,0.2,145.78-29.37,198.24-82.12c109.48-109.48,109.48-287,0-396.48S191.6-27.36,82.12,82.12z M280.36,530.72
		C142.31,530.72,30,418.41,30,280.36S142.31,30,280.36,30s250.36,112.31,250.36,250.36S418.41,530.72,280.36,530.72z"/>
</g>
</svg>
